<?xml version="1.0" encoding="UTF-8" standalone="no"?>
<!-- Created with Inkscape (http://www.inkscape.org/) -->

<svg
   xmlns:dc="http://purl.org/dc/elements/1.1/"
   xmlns:cc="http://creativecommons.org/ns#"
   xmlns:rdf="http://www.w3.org/1999/02/22-rdf-syntax-ns#"
   xmlns:svg="http://www.w3.org/2000/svg"
   xmlns="http://www.w3.org/2000/svg"
   xmlns:sodipodi="http://sodipodi.sourceforge.net/DTD/sodipodi-0.dtd"
   xmlns:inkscape="http://www.inkscape.org/namespaces/inkscape"
   width="2979.9211"
   height="4212.9922"
   id="svg2"
   version="1.1"
   inkscape:version="0.48.5 r10040"
   sodipodi:docname="New document 1">
  <defs
     id="defs4" />
  <sodipodi:namedview
     id="base"
     pagecolor="#ffffff"
     bordercolor="#666666"
     borderopacity="1.0"
     inkscape:pageopacity="0.0"
     inkscape:pageshadow="2"
     inkscape:zoom="0.25"
     inkscape:cx="1718.8579"
     inkscape:cy="1657.6895"
     inkscape:document-units="mm"
     inkscape:current-layer="layer1"
     showgrid="false"
     showguides="true"
     inkscape:guide-bbox="true"
     inkscape:window-width="1920"
     inkscape:window-height="1148"
     inkscape:window-x="0"
     inkscape:window-y="30"
     inkscape:window-maximized="1">
    <sodipodi:guide
       orientation="0,1"
       position="30.683594,4133.2656"
       id="guide3631" />
    <sodipodi:guide
       orientation="0,1"
       position="-6.363961,96.873629"
       id="guide3633" />
    <sodipodi:guide
       orientation="1,0"
       position="30.683594,4133.2656"
       id="guide4469" />
    <sodipodi:guide
       orientation="0,1"
       position="42.603183,4164.3286"
       id="guide4471" />
    <sodipodi:guide
       orientation="0,1"
       position="80.078125,66.054687"
       id="guide4473" />
    <sodipodi:guide
       orientation="1,0"
       position="2949.25,73.5"
       id="guide4475" />
  </sodipodi:namedview>
  <metadata
     id="metadata7">
    <rdf:RDF>
      <cc:Work
         rdf:about="">
        <dc:format>image/svg+xml</dc:format>
        <dc:type
           rdf:resource="http://purl.org/dc/dcmitype/StillImage" />
        <dc:title></dc:title>
      </cc:Work>
    </rdf:RDF>
  </metadata>
  <g
     inkscape:label="Layer 1"
     inkscape:groupmode="layer"
     id="layer1"
     transform="translate(0,3160.6299)">
    <g
       id="g3271"
       transform="matrix(0.3104834,0,0,-0.3104834,-0.35974871,986.42863)"
       style="fill:#000000;stroke:none">
      <path
         id="path3273"
         d="m 100,12600 0,-500 500,0 500,0 0,500 0,500 -500,0 -500,0 0,-500 z m 280,290 0,-70 70,0 70,0 0,-280 0,-280 -70,0 -70,0 0,280 0,280 -70,0 -70,0 0,70 0,70 70,0 70,0 0,-70 z m 560,-350 0,-280 -70,0 -70,0 0,280 0,280 70,0 70,0 0,-280 z"
         inkscape:connector-curvature="0" />
      <path
         id="path3275"
         d="m 1300,12600 0,-500 500,0 500,0 0,500 0,500 -500,0 -500,0 0,-500 z m 420,290 0,-70 140,0 140,0 0,70 0,70 70,0 70,0 0,-140 0,-140 -210,0 -210,0 0,70 0,70 -70,0 -70,0 0,-140 0,-140 210,0 210,0 0,-70 0,-70 -210,0 -210,0 0,-70 0,-70 -70,0 -70,0 0,70 0,70 70,0 70,0 0,70 0,70 -70,0 -70,0 0,140 0,140 70,0 70,0 0,70 0,70 70,0 70,0 0,-70 z"
         inkscape:connector-curvature="0" />
      <path
         id="path3277"
         d="m 2500,12600 0,-500 500,0 500,0 0,500 0,500 -500,0 -500,0 0,-500 z m 700,290 0,-70 70,0 70,0 0,-70 0,-70 -70,0 -70,0 0,-70 0,-70 -210,0 -210,0 0,-140 0,-140 -70,0 -70,0 0,140 0,140 70,0 70,0 0,70 0,70 -70,0 -70,0 0,70 0,70 70,0 70,0 0,70 0,70 210,0 210,0 0,-70 z"
         inkscape:connector-curvature="0" />
      <path
         id="path3279"
         d="m 2780,12750 0,-70 70,0 70,0 0,70 0,70 -70,0 -70,0 0,-70 z"
         inkscape:connector-curvature="0" />
      <path
         id="path3281"
         d="m 3700,12600 0,-500 500,0 500,0 0,500 0,500 -500,0 -500,0 0,-500 z m 420,290 0,-70 140,0 140,0 0,70 0,70 70,0 70,0 0,-210 0,-210 -210,0 -210,0 0,140 0,140 -70,0 -70,0 0,-280 0,-280 -70,0 -70,0 0,280 0,280 70,0 70,0 0,70 0,70 70,0 70,0 0,-70 z"
         inkscape:connector-curvature="0" />
      <path
         id="path3283"
         d="m 4900,12600 0,-500 500,0 500,0 0,500 0,500 -500,0 -500,0 0,-500 z m 420,290 0,-70 140,0 140,0 0,70 0,70 70,0 70,0 0,-70 0,-70 -70,0 -70,0 0,-210 0,-210 -210,0 -210,0 0,-70 0,-70 -70,0 -70,0 0,70 0,70 70,0 70,0 0,280 0,280 70,0 70,0 0,-70 z"
         inkscape:connector-curvature="0" />
      <path
         id="path3285"
         d="m 6100,12600 0,-500 500,0 500,0 0,500 0,500 -500,0 -500,0 0,-500 z m 700,290 0,-70 70,0 70,0 0,-70 0,-70 -70,0 -70,0 0,-70 0,-70 -210,0 -210,0 0,-140 0,-140 -70,0 -70,0 0,140 0,140 70,0 70,0 0,210 0,210 210,0 210,0 0,-70 z"
         inkscape:connector-curvature="0" />
      <path
         id="path3287"
         d="m 6520,12750 0,-70 140,0 140,0 0,70 0,70 -140,0 -140,0 0,-70 z"
         inkscape:connector-curvature="0" />
      <path
         id="path3289"
         d="m 7300,12600 0,-500 500,0 500,0 0,500 0,500 -500,0 -500,0 0,-500 z m 700,290 0,-70 -210,0 -210,0 0,-280 0,-280 -70,0 -70,0 0,280 0,280 70,0 70,0 0,70 0,70 210,0 210,0 0,-70 z m 140,-350 0,-140 -210,0 -210,0 0,140 0,140 210,0 210,0 0,-140 z"
         inkscape:connector-curvature="0" />
      <path
         id="path3291"
         d="m 8500,12600 0,-500 500,0 500,0 0,500 0,500 -500,0 -500,0 0,-500 z m 280,220 0,-140 210,0 210,0 0,-70 0,-70 -210,0 -210,0 0,-70 0,-70 70,0 70,0 0,-70 0,-70 -70,0 -70,0 0,70 0,70 -70,0 -70,0 0,70 0,70 70,0 70,0 0,70 0,70 -70,0 -70,0 0,140 0,140 70,0 70,0 0,-140 z m 560,70 0,-70 -210,0 -210,0 0,70 0,70 210,0 210,0 0,-70 z m 0,-560 0,-70 -70,0 -70,0 0,70 0,70 70,0 70,0 0,-70 z"
         inkscape:connector-curvature="0" />
      <path
         id="path3293"
         d="m 100,11400 0,-500 500,0 500,0 0,500 0,500 -500,0 -500,0 0,-500 z m 280,290 0,-70 210,0 210,0 0,-70 0,-70 70,0 70,0 0,-210 0,-210 -70,0 -70,0 0,210 0,210 -140,0 -140,0 0,-210 0,-210 -70,0 -70,0 0,280 0,280 -70,0 -70,0 0,70 0,70 70,0 70,0 0,-70 z"
         inkscape:connector-curvature="0" />
      <path
         id="path3295"
         d="m 1300,11400 0,-500 500,0 500,0 0,500 0,500 -500,0 -500,0 0,-500 z m 280,220 0,-140 210,0 210,0 0,-70 0,-70 70,0 70,0 0,-140 0,-140 -210,0 -210,0 0,70 0,70 -70,0 -70,0 0,-70 0,-70 -70,0 -70,0 0,70 0,70 70,0 70,0 0,140 0,140 -70,0 -70,0 0,140 0,140 70,0 70,0 0,-140 z"
         inkscape:connector-curvature="0" />
      <path
         id="path3297"
         d="m 1720,11270 0,-70 140,0 140,0 0,70 0,70 -140,0 -140,0 0,-70 z"
         inkscape:connector-curvature="0" />
      <path
         id="path3299"
         d="m 2500,11400 0,-500 500,0 500,0 0,500 0,500 -500,0 -500,0 0,-500 z m 700,290 0,-70 70,0 70,0 0,-280 0,-280 -70,0 -70,0 0,70 0,70 -140,0 -140,0 0,-70 0,-70 -70,0 -70,0 0,70 0,70 -70,0 -70,0 0,210 0,210 70,0 70,0 0,70 0,70 210,0 210,0 0,-70 z"
         inkscape:connector-curvature="0" />
      <path
         id="path3301"
         d="m 2780,11410 0,-210 70,0 70,0 0,210 0,210 -70,0 -70,0 0,-210 z"
         inkscape:connector-curvature="0" />
      <path
         id="path3303"
         d="m 3700,11400 0,-500 500,0 500,0 0,500 0,500 -500,0 -500,0 0,-500 z m 280,220 0,-140 70,0 70,0 0,-70 0,-70 -70,0 -70,0 0,-140 0,-140 -70,0 -70,0 0,140 0,140 70,0 70,0 0,70 0,70 -70,0 -70,0 0,140 0,140 70,0 70,0 0,-140 z m 560,-210 0,-70 -70,0 -70,0 0,70 0,70 70,0 70,0 0,-70 z m 0,-280 0,-70 -210,0 -210,0 0,70 0,70 210,0 210,0 0,-70 z"
         inkscape:connector-curvature="0" />
      <path
         id="path3305"
         d="m 4900,11400 0,-500 500,0 500,0 0,500 0,500 -500,0 -500,0 0,-500 z m 420,220 0,-140 140,0 140,0 0,140 0,140 70,0 70,0 0,-280 0,-280 -70,0 -70,0 0,70 0,70 -140,0 -140,0 0,-70 0,-70 -70,0 -70,0 0,-70 0,-70 -70,0 -70,0 0,70 0,70 70,0 70,0 0,70 0,70 -70,0 -70,0 0,70 0,70 70,0 70,0 0,140 0,140 70,0 70,0 0,-140 z"
         inkscape:connector-curvature="0" />
      <path
         id="path3307"
         d="m 5180,11410 0,-70 70,0 70,0 0,70 0,70 -70,0 -70,0 0,-70 z"
         inkscape:connector-curvature="0" />
      <path
         id="path3309"
         d="m 6100,11400 0,-500 500,0 500,0 0,500 0,500 -500,0 -500,0 0,-500 z m 420,290 0,-70 140,0 140,0 0,70 0,70 70,0 70,0 0,-210 0,-210 -70,0 -70,0 0,-70 0,-70 70,0 70,0 0,-70 0,-70 -70,0 -70,0 0,70 0,70 -140,0 -140,0 0,-70 0,-70 -70,0 -70,0 0,140 0,140 -70,0 -70,0 0,140 0,140 70,0 70,0 0,70 0,70 70,0 70,0 0,-70 z"
         inkscape:connector-curvature="0" />
      <path
         id="path3311"
         d="m 6380,11480 0,-140 70,0 70,0 0,140 0,140 -70,0 -70,0 0,-140 z"
         inkscape:connector-curvature="0" />
      <path
         id="path3313"
         d="m 7300,11400 0,-500 500,0 500,0 0,500 0,500 -500,0 -500,0 0,-500 z m 280,290 0,-70 70,0 70,0 0,70 0,70 210,0 210,0 0,-70 0,-70 -70,0 -70,0 0,-70 0,-70 70,0 70,0 0,-140 0,-140 -70,0 -70,0 0,140 0,140 -140,0 -140,0 0,-140 0,-140 -70,0 -70,0 0,-70 0,-70 -70,0 -70,0 0,70 0,70 70,0 70,0 0,210 0,210 -70,0 -70,0 0,70 0,70 70,0 70,0 0,-70 z"
         inkscape:connector-curvature="0" />
      <path
         id="path3315"
         d="m 8500,11400 0,-500 500,0 500,0 0,500 0,500 -500,0 -500,0 0,-500 z m 420,290 0,-70 140,0 140,0 0,70 0,70 70,0 70,0 0,-140 0,-140 -70,0 -70,0 0,-140 0,-140 70,0 70,0 0,-70 0,-70 -210,0 -210,0 0,70 0,70 -70,0 -70,0 0,-70 0,-70 -70,0 -70,0 0,70 0,70 70,0 70,0 0,140 0,140 -70,0 -70,0 0,70 0,70 70,0 70,0 0,70 0,70 70,0 70,0 0,-70 z"
         inkscape:connector-curvature="0" />
      <path
         id="path3317"
         d="m 8780,11550 0,-70 70,0 70,0 0,70 0,70 -70,0 -70,0 0,-70 z"
         inkscape:connector-curvature="0" />
      <path
         id="path3319"
         d="m 100,10200 0,-500 500,0 500,0 0,500 0,500 -500,0 -500,0 0,-500 z m 280,290 0,-70 210,0 210,0 0,-140 0,-140 70,0 70,0 0,-140 0,-140 -210,0 -210,0 0,140 0,140 -70,0 -70,0 0,-140 0,-140 -70,0 -70,0 0,140 0,140 70,0 70,0 0,140 0,140 -70,0 -70,0 0,70 0,70 70,0 70,0 0,-70 z"
         inkscape:connector-curvature="0" />
      <path
         id="path3321"
         d="m 1300,10200 0,-500 500,0 500,0 0,500 0,500 -500,0 -500,0 0,-500 z m 280,290 0,-70 70,0 70,0 0,70 0,70 210,0 210,0 0,-70 0,-70 -70,0 -70,0 0,-70 0,-70 70,0 70,0 0,-210 0,-210 -210,0 -210,0 0,210 0,210 -70,0 -70,0 0,-210 0,-210 -70,0 -70,0 0,210 0,210 70,0 70,0 0,70 0,70 -70,0 -70,0 0,70 0,70 70,0 70,0 0,-70 z"
         inkscape:connector-curvature="0" />
      <path
         id="path3323"
         d="m 2500,10200 0,-500 500,0 500,0 0,500 0,500 -500,0 -500,0 0,-500 z m 280,220 0,-140 210,0 210,0 0,-70 0,-70 -210,0 -210,0 0,-140 0,-140 -70,0 -70,0 0,140 0,140 70,0 70,0 0,70 0,70 -70,0 -70,0 0,140 0,140 70,0 70,0 0,-140 z"
         inkscape:connector-curvature="0" />
      <path
         id="path3325"
         d="m 3700,10200 0,-500 500,0 500,0 0,500 0,500 -500,0 -500,0 0,-500 z m 280,290 0,-70 70,0 70,0 0,-140 0,-140 140,0 140,0 0,140 0,140 70,0 70,0 0,-210 0,-210 -210,0 -210,0 0,70 0,70 -70,0 -70,0 0,-140 0,-140 -70,0 -70,0 0,140 0,140 70,0 70,0 0,140 0,140 -70,0 -70,0 0,70 0,70 70,0 70,0 0,-70 z"
         inkscape:connector-curvature="0" />
      <path
         id="path3327"
         d="m 4900,10200 0,-500 500,0 500,0 0,500 0,500 -500,0 -500,0 0,-500 z m 280,220 0,-140 70,0 70,0 0,140 0,140 210,0 210,0 0,-140 0,-140 -70,0 -70,0 0,-70 0,-70 70,0 70,0 0,-140 0,-140 -210,0 -210,0 0,70 0,70 -70,0 -70,0 0,-70 0,-70 -70,0 -70,0 0,70 0,70 70,0 70,0 0,140 0,140 -70,0 -70,0 0,140 0,140 70,0 70,0 0,-140 z"
         inkscape:connector-curvature="0" />
      <path
         id="path3329"
         d="m 5320,10070 0,-70 140,0 140,0 0,70 0,70 -140,0 -140,0 0,-70 z"
         inkscape:connector-curvature="0" />
      <path
         id="path3331"
         d="m 6100,10200 0,-500 500,0 500,0 0,500 0,500 -500,0 -500,0 0,-500 z m 420,290 0,-70 140,0 140,0 0,70 0,70 70,0 70,0 0,-350 0,-350 -210,0 -210,0 0,140 0,140 -70,0 -70,0 0,-140 0,-140 -70,0 -70,0 0,140 0,140 70,0 70,0 0,70 0,70 -70,0 -70,0 0,70 0,70 70,0 70,0 0,70 0,70 70,0 70,0 0,-70 z"
         inkscape:connector-curvature="0" />
      <path
         id="path3333"
         d="m 6380,10350 0,-70 70,0 70,0 0,-70 0,-70 140,0 140,0 0,70 0,70 -140,0 -140,0 0,70 0,70 -70,0 -70,0 0,-70 z"
         inkscape:connector-curvature="0" />
      <path
         id="path3335"
         d="m 7300,10200 0,-500 500,0 500,0 0,500 0,500 -500,0 -500,0 0,-500 z m 280,290 0,-70 210,0 210,0 0,-140 0,-140 70,0 70,0 0,-140 0,-140 -70,0 -70,0 0,70 0,70 -140,0 -140,0 0,-70 0,-70 -70,0 -70,0 0,70 0,70 -70,0 -70,0 0,70 0,70 70,0 70,0 0,140 0,140 -70,0 -70,0 0,70 0,70 70,0 70,0 0,-70 z"
         inkscape:connector-curvature="0" />
      <path
         id="path3337"
         d="m 7580,10070 0,-70 70,0 70,0 0,70 0,70 -70,0 -70,0 0,-70 z"
         inkscape:connector-curvature="0" />
      <path
         id="path3339"
         d="m 8500,10200 0,-500 500,0 500,0 0,500 0,500 -500,0 -500,0 0,-500 z m 420,290 0,-70 140,0 140,0 0,70 0,70 70,0 70,0 0,-70 0,-70 -70,0 -70,0 0,-140 0,-140 -210,0 -210,0 0,-70 0,-70 210,0 210,0 0,-70 0,-70 -210,0 -210,0 0,70 0,70 -70,0 -70,0 0,70 0,70 70,0 70,0 0,210 0,210 70,0 70,0 0,-70 z"
         inkscape:connector-curvature="0" />
      <path
         id="path3341"
         d="m 100,9000 0,-500 500,0 500,0 0,500 0,500 -500,0 -500,0 0,-500 z m 420,290 0,-70 -70,0 -70,0 0,-210 0,-210 70,0 70,0 0,-70 0,-70 -70,0 -70,0 0,70 0,70 -70,0 -70,0 0,210 0,210 70,0 70,0 0,70 0,70 70,0 70,0 0,-70 z m 420,0 0,-70 -70,0 -70,0 0,70 0,70 70,0 70,0 0,-70 z m 0,-280 0,-70 -210,0 -210,0 0,70 0,70 210,0 210,0 0,-70 z m 0,-280 0,-70 -70,0 -70,0 0,70 0,70 70,0 70,0 0,-70 z"
         inkscape:connector-curvature="0" />
      <path
         id="path3343"
         d="m 1300,9000 0,-500 500,0 500,0 0,500 0,500 -500,0 -500,0 0,-500 z m 700,290 0,-70 70,0 70,0 0,-70 0,-70 -210,0 -210,0 0,70 0,70 -70,0 -70,0 0,-210 0,-210 210,0 210,0 0,-70 0,-70 -210,0 -210,0 0,70 0,70 -70,0 -70,0 0,210 0,210 70,0 70,0 0,70 0,70 210,0 210,0 0,-70 z"
         inkscape:connector-curvature="0" />
      <path
         id="path3345"
         d="m 2500,9000 0,-500 500,0 500,0 0,500 0,500 -500,0 -500,0 0,-500 z m 280,220 0,-140 70,0 70,0 0,70 0,70 210,0 210,0 0,-210 0,-210 -210,0 -210,0 0,70 0,70 -70,0 -70,0 0,-140 0,-140 -70,0 -70,0 0,140 0,140 70,0 70,0 0,70 0,70 -70,0 -70,0 0,140 0,140 70,0 70,0 0,-140 z"
         inkscape:connector-curvature="0" />
      <path
         id="path3347"
         d="m 2920,9010 0,-70 140,0 140,0 0,70 0,70 -140,0 -140,0 0,-70 z"
         inkscape:connector-curvature="0" />
      <path
         id="path3349"
         d="m 3700,9000 0,-500 500,0 500,0 0,500 0,500 -500,0 -500,0 0,-500 z m 700,220 0,-140 -210,0 -210,0 0,-140 0,-140 210,0 210,0 0,-70 0,-70 -210,0 -210,0 0,70 0,70 -70,0 -70,0 0,140 0,140 70,0 70,0 0,140 0,140 210,0 210,0 0,-140 z"
         inkscape:connector-curvature="0" />
      <path
         id="path3351"
         d="m 4900,9000 0,-500 500,0 500,0 0,500 0,500 -500,0 -500,0 0,-500 z m 700,290 0,-70 70,0 70,0 0,-280 0,-280 -210,0 -210,0 0,70 0,70 -70,0 -70,0 0,-70 0,-70 -70,0 -70,0 0,70 0,70 70,0 70,0 0,140 0,140 -70,0 -70,0 0,70 0,70 70,0 70,0 0,70 0,70 210,0 210,0 0,-70 z"
         inkscape:connector-curvature="0" />
      <path
         id="path3353"
         d="m 5180,9150 0,-70 70,0 70,0 0,-140 0,-140 140,0 140,0 0,140 0,140 -140,0 -140,0 0,70 0,70 -70,0 -70,0 0,-70 z"
         inkscape:connector-curvature="0" />
      <path
         id="path3355"
         d="m 6100,9000 0,-500 500,0 500,0 0,500 0,500 -500,0 -500,0 0,-500 z m 280,290 0,-70 70,0 70,0 0,-70 0,-70 -70,0 -70,0 0,-70 0,-70 70,0 70,0 0,-70 0,-70 140,0 140,0 0,70 0,70 70,0 70,0 0,-140 0,-140 -210,0 -210,0 0,70 0,70 -70,0 -70,0 0,-70 0,-70 -70,0 -70,0 0,70 0,70 70,0 70,0 0,70 0,70 -70,0 -70,0 0,70 0,70 70,0 70,0 0,70 0,70 -70,0 -70,0 0,70 0,70 70,0 70,0 0,-70 z m 560,-140 0,-70 -70,0 -70,0 0,70 0,70 70,0 70,0 0,-70 z"
         inkscape:connector-curvature="0" />
      <path
         id="path3357"
         d="m 7300,9000 0,-500 500,0 500,0 0,500 0,500 -500,0 -500,0 0,-500 z m 280,290 0,-70 210,0 210,0 0,-280 0,-280 -210,0 -210,0 0,280 0,280 -70,0 -70,0 0,70 0,70 70,0 70,0 0,-70 z"
         inkscape:connector-curvature="0" />
      <path
         id="path3359"
         d="m 8500,9000 0,-500 500,0 500,0 0,500 0,500 -500,0 -500,0 0,-500 z m 280,290 0,-70 70,0 70,0 0,70 0,70 210,0 210,0 0,-140 0,-140 -70,0 -70,0 0,-70 0,-70 -210,0 -210,0 0,-140 0,-140 -70,0 -70,0 0,140 0,140 70,0 70,0 0,140 0,140 -70,0 -70,0 0,70 0,70 70,0 70,0 0,-70 z m 560,-560 0,-70 -210,0 -210,0 0,70 0,70 210,0 210,0 0,-70 z"
         inkscape:connector-curvature="0" />
      <path
         id="path3361"
         d="m 8920,9150 0,-70 140,0 140,0 0,70 0,70 -140,0 -140,0 0,-70 z"
         inkscape:connector-curvature="0" />
      <path
         id="path3363"
         d="m 100,7800 0,-500 500,0 500,0 0,500 0,500 -500,0 -500,0 0,-500 z m 280,10 0,-350 -70,0 -70,0 0,350 0,350 70,0 70,0 0,-350 z m 560,70 0,-140 -210,0 -210,0 0,140 0,140 210,0 210,0 0,-140 z"
         inkscape:connector-curvature="0" />
      <path
         id="path3365"
         d="m 1300,7800 0,-500 500,0 500,0 0,500 0,500 -500,0 -500,0 0,-500 z m 700,290 0,-70 70,0 70,0 0,-140 0,-140 -210,0 -210,0 0,70 0,70 -70,0 -70,0 0,-210 0,-210 -70,0 -70,0 0,210 0,210 70,0 70,0 0,140 0,140 210,0 210,0 0,-70 z"
         inkscape:connector-curvature="0" />
      <path
         id="path3367"
         d="m 1720,7950 0,-70 140,0 140,0 0,70 0,70 -140,0 -140,0 0,-70 z"
         inkscape:connector-curvature="0" />
      <path
         id="path3369"
         d="m 2500,7800 0,-500 500,0 500,0 0,500 0,500 -500,0 -500,0 0,-500 z m 700,220 0,-140 70,0 70,0 0,-210 0,-210 -210,0 -210,0 0,70 0,70 -70,0 -70,0 0,-70 0,-70 -70,0 -70,0 0,70 0,70 70,0 70,0 0,70 0,70 -70,0 -70,0 0,70 0,70 70,0 70,0 0,140 0,140 210,0 210,0 0,-140 z"
         inkscape:connector-curvature="0" />
      <path
         id="path3371"
         d="m 2780,7810 0,-70 70,0 70,0 0,-70 0,-70 140,0 140,0 0,70 0,70 -140,0 -140,0 0,70 0,70 -70,0 -70,0 0,-70 z"
         inkscape:connector-curvature="0" />
      <path
         id="path3373"
         d="m 3700,7800 0,-500 500,0 500,0 0,500 0,500 -500,0 -500,0 0,-500 z m 280,220 0,-140 70,0 70,0 0,-70 0,-70 -70,0 -70,0 0,-70 0,-70 210,0 210,0 0,-70 0,-70 -210,0 -210,0 0,70 0,70 -70,0 -70,0 0,70 0,70 70,0 70,0 0,70 0,70 -70,0 -70,0 0,140 0,140 70,0 70,0 0,-140 z m 560,-210 0,-70 -70,0 -70,0 0,70 0,70 70,0 70,0 0,-70 z"
         inkscape:connector-curvature="0" />
      <path
         id="path3375"
         d="m 4900,7800 0,-500 500,0 500,0 0,500 0,500 -500,0 -500,0 0,-500 z m 280,150 0,-210 70,0 70,0 0,-70 0,-70 140,0 140,0 0,70 0,70 70,0 70,0 0,-140 0,-140 -210,0 -210,0 0,70 0,70 -70,0 -70,0 0,-70 0,-70 -70,0 -70,0 0,70 0,70 70,0 70,0 0,70 0,70 -70,0 -70,0 0,210 0,210 70,0 70,0 0,-210 z m 560,70 0,-140 -210,0 -210,0 0,140 0,140 210,0 210,0 0,-140 z"
         inkscape:connector-curvature="0" />
      <path
         id="path3377"
         d="m 6100,7800 0,-500 500,0 500,0 0,500 0,500 -500,0 -500,0 0,-500 z m 420,290 0,-70 140,0 140,0 0,70 0,70 70,0 70,0 0,-140 0,-140 -210,0 -210,0 0,70 0,70 -70,0 -70,0 0,-210 0,-210 70,0 70,0 0,-70 0,-70 -70,0 -70,0 0,70 0,70 -70,0 -70,0 0,210 0,210 70,0 70,0 0,70 0,70 70,0 70,0 0,-70 z m 420,-560 0,-70 -70,0 -70,0 0,70 0,70 70,0 70,0 0,-70 z"
         inkscape:connector-curvature="0" />
      <path
         id="path3379"
         d="m 7300,7800 0,-500 500,0 500,0 0,500 0,500 -500,0 -500,0 0,-500 z m 280,290 0,-70 210,0 210,0 0,-70 0,-70 70,0 70,0 0,-210 0,-210 -210,0 -210,0 0,210 0,210 -70,0 -70,0 0,-210 0,-210 -70,0 -70,0 0,210 0,210 70,0 70,0 0,70 0,70 -70,0 -70,0 0,70 0,70 70,0 70,0 0,-70 z"
         inkscape:connector-curvature="0" />
      <path
         id="path3381"
         d="m 8500,7800 0,-500 500,0 500,0 0,500 0,500 -500,0 -500,0 0,-500 z m 420,220 0,-140 -70,0 -70,0 0,-70 0,-70 210,0 210,0 0,-70 0,-70 70,0 70,0 0,-70 0,-70 -70,0 -70,0 0,70 0,70 -140,0 -140,0 0,-70 0,-70 -70,0 -70,0 0,140 0,140 -70,0 -70,0 0,70 0,70 70,0 70,0 0,140 0,140 70,0 70,0 0,-140 z m 420,0 0,-140 -70,0 -70,0 0,140 0,140 70,0 70,0 0,-140 z"
         inkscape:connector-curvature="0" />
      <path
         id="path3383"
         d="m 100,6600 0,-500 500,0 500,0 0,500 0,500 -500,0 -500,0 0,-500 z m 700,220 0,-140 70,0 70,0 0,-70 0,-70 -70,0 -70,0 0,-70 0,-70 70,0 70,0 0,-70 0,-70 -70,0 -70,0 0,70 0,70 -140,0 -140,0 0,-70 0,-70 -70,0 -70,0 0,140 0,140 -70,0 -70,0 0,70 0,70 70,0 70,0 0,140 0,140 210,0 210,0 0,-140 z"
         inkscape:connector-curvature="0" />
      <path
         id="path3385"
         d="m 380,6610 0,-70 70,0 70,0 0,70 0,70 -70,0 -70,0 0,-70 z"
         inkscape:connector-curvature="0" />
      <path
         id="path3387"
         d="m 1300,6600 0,-500 500,0 500,0 0,500 0,500 -500,0 -500,0 0,-500 z m 280,290 0,-70 210,0 210,0 0,-70 0,-70 70,0 70,0 0,-140 0,-140 -70,0 -70,0 0,-70 0,-70 -210,0 -210,0 0,280 0,280 -70,0 -70,0 0,70 0,70 70,0 70,0 0,-70 z"
         inkscape:connector-curvature="0" />
      <path
         id="path3389"
         d="m 1720,6540 0,-140 140,0 140,0 0,140 0,140 -140,0 -140,0 0,-140 z"
         inkscape:connector-curvature="0" />
      <path
         id="path3391"
         d="m 2500,6600 0,-500 500,0 500,0 0,500 0,500 -500,0 -500,0 0,-500 z m 280,150 0,-210 210,0 210,0 0,-70 0,-70 70,0 70,0 0,-70 0,-70 -210,0 -210,0 0,70 0,70 -70,0 -70,0 0,-70 0,-70 -70,0 -70,0 0,70 0,70 70,0 70,0 0,70 0,70 -70,0 -70,0 0,210 0,210 70,0 70,0 0,-210 z m 560,140 0,-70 -210,0 -210,0 0,70 0,70 210,0 210,0 0,-70 z"
         inkscape:connector-curvature="0" />
      <path
         id="path3393"
         d="m 3700,6600 0,-500 500,0 500,0 0,500 0,500 -500,0 -500,0 0,-500 z m 420,150 0,-210 140,0 140,0 0,210 0,210 70,0 70,0 0,-280 0,-280 -70,0 -70,0 0,-70 0,-70 -210,0 -210,0 0,70 0,70 -70,0 -70,0 0,70 0,70 70,0 70,0 0,210 0,210 70,0 70,0 0,-210 z"
         inkscape:connector-curvature="0" />
      <path
         id="path3395"
         d="m 3980,6470 0,-70 70,0 70,0 0,70 0,70 -70,0 -70,0 0,-70 z"
         inkscape:connector-curvature="0" />
      <path
         id="path3397"
         d="m 4900,6600 0,-500 500,0 500,0 0,500 0,500 -500,0 -500,0 0,-500 z m 280,220 0,-140 70,0 70,0 0,-70 0,-70 140,0 140,0 0,70 0,70 70,0 70,0 0,-210 0,-210 -210,0 -210,0 0,140 0,140 -70,0 -70,0 0,-140 0,-140 -70,0 -70,0 0,140 0,140 70,0 70,0 0,70 0,70 -70,0 -70,0 0,140 0,140 70,0 70,0 0,-140 z m 560,70 0,-70 -210,0 -210,0 0,70 0,70 210,0 210,0 0,-70 z"
         inkscape:connector-curvature="0" />
      <path
         id="path3399"
         d="m 6100,6600 0,-500 500,0 500,0 0,500 0,500 -500,0 -500,0 0,-500 z m 420,290 0,-70 -70,0 -70,0 0,-210 0,-210 70,0 70,0 0,70 0,70 210,0 210,0 0,-140 0,-140 -70,0 -70,0 0,70 0,70 -140,0 -140,0 0,-70 0,-70 -70,0 -70,0 0,70 0,70 -70,0 -70,0 0,210 0,210 70,0 70,0 0,70 0,70 70,0 70,0 0,-70 z m 420,0 0,-70 -70,0 -70,0 0,70 0,70 70,0 70,0 0,-70 z"
         inkscape:connector-curvature="0" />
      <path
         id="path3401"
         d="m 7300,6600 0,-500 500,0 500,0 0,500 0,500 -500,0 -500,0 0,-500 z m 280,220 0,-140 70,0 70,0 0,-70 0,-70 140,0 140,0 0,70 0,70 70,0 70,0 0,-140 0,-140 -210,0 -210,0 0,70 0,70 -70,0 -70,0 0,-140 0,-140 -70,0 -70,0 0,140 0,140 70,0 70,0 0,70 0,70 -70,0 -70,0 0,140 0,140 70,0 70,0 0,-140 z m 560,70 0,-70 -210,0 -210,0 0,70 0,70 210,0 210,0 0,-70 z"
         inkscape:connector-curvature="0" />
      <path
         id="path3403"
         d="m 8500,6600 0,-500 500,0 500,0 0,500 0,500 -500,0 -500,0 0,-500 z m 280,150 0,-210 70,0 70,0 0,70 0,70 210,0 210,0 0,-140 0,-140 -70,0 -70,0 0,-70 0,-70 -210,0 -210,0 0,140 0,140 -70,0 -70,0 0,210 0,210 70,0 70,0 0,-210 z"
         inkscape:connector-curvature="0" />
      <path
         id="path3405"
         d="m 8920,6470 0,-70 140,0 140,0 0,70 0,70 -140,0 -140,0 0,-70 z"
         inkscape:connector-curvature="0" />
      <path
         id="path3407"
         d="m 100,5400 0,-500 500,0 500,0 0,500 0,500 -500,0 -500,0 0,-500 z m 700,220 0,-140 70,0 70,0 0,-140 0,-140 -210,0 -210,0 0,70 0,70 -70,0 -70,0 0,-140 0,-140 -70,0 -70,0 0,140 0,140 70,0 70,0 0,210 0,210 210,0 210,0 0,-140 z"
         inkscape:connector-curvature="0" />
      <path
         id="path3409"
         d="m 520,5410 0,-70 140,0 140,0 0,70 0,70 -140,0 -140,0 0,-70 z"
         inkscape:connector-curvature="0" />
      <path
         id="path3411"
         d="m 1300,5400 0,-500 500,0 500,0 0,500 0,500 -500,0 -500,0 0,-500 z m 280,290 0,-70 70,0 70,0 0,-70 0,-70 -70,0 -70,0 0,-140 0,-140 210,0 210,0 0,-70 0,-70 -210,0 -210,0 0,70 0,70 -70,0 -70,0 0,140 0,140 70,0 70,0 0,70 0,70 -70,0 -70,0 0,70 0,70 70,0 70,0 0,-70 z m 560,-140 0,-70 -70,0 -70,0 0,70 0,70 70,0 70,0 0,-70 z"
         inkscape:connector-curvature="0" />
      <path
         id="path3413"
         d="m 2500,5400 0,-500 500,0 500,0 0,500 0,500 -500,0 -500,0 0,-500 z m 700,290 0,-70 70,0 70,0 0,-70 0,-70 -70,0 -70,0 0,-70 0,-70 70,0 70,0 0,-70 0,-70 -210,0 -210,0 0,70 0,70 -70,0 -70,0 0,-140 0,-140 -70,0 -70,0 0,140 0,140 70,0 70,0 0,210 0,210 210,0 210,0 0,-70 z"
         inkscape:connector-curvature="0" />
      <path
         id="path3415"
         d="m 2920,5550 0,-70 140,0 140,0 0,70 0,70 -140,0 -140,0 0,-70 z"
         inkscape:connector-curvature="0" />
      <path
         id="path3417"
         d="m 3700,5400 0,-500 500,0 500,0 0,500 0,500 -500,0 -500,0 0,-500 z m 700,290 0,-70 -210,0 -210,0 0,-140 0,-140 70,0 70,0 0,70 0,70 210,0 210,0 0,-70 0,-70 -70,0 -70,0 0,-140 0,-140 -210,0 -210,0 0,140 0,140 -70,0 -70,0 0,140 0,140 70,0 70,0 0,70 0,70 210,0 210,0 0,-70 z"
         inkscape:connector-curvature="0" />
      <path
         id="path3419"
         d="m 4900,5400 0,-500 500,0 500,0 0,500 0,500 -500,0 -500,0 0,-500 z m 420,290 0,-70 -70,0 -70,0 0,-140 0,-140 70,0 70,0 0,70 0,70 210,0 210,0 0,-140 0,-140 -70,0 -70,0 0,-70 0,-70 -210,0 -210,0 0,140 0,140 -70,0 -70,0 0,140 0,140 70,0 70,0 0,70 0,70 70,0 70,0 0,-70 z m 420,0 0,-70 -70,0 -70,0 0,70 0,70 70,0 70,0 0,-70 z"
         inkscape:connector-curvature="0" />
      <path
         id="path3421"
         d="m 5320,5270 0,-70 140,0 140,0 0,70 0,70 -140,0 -140,0 0,-70 z"
         inkscape:connector-curvature="0" />
      <path
         id="path3423"
         d="m 6100,5400 0,-500 500,0 500,0 0,500 0,500 -500,0 -500,0 0,-500 z m 280,290 0,-70 70,0 70,0 0,70 0,70 210,0 210,0 0,-140 0,-140 -70,0 -70,0 0,70 0,70 -140,0 -140,0 0,-70 0,-70 -70,0 -70,0 0,-210 0,-210 -70,0 -70,0 0,210 0,210 70,0 70,0 0,70 0,70 -70,0 -70,0 0,70 0,70 70,0 70,0 0,-70 z"
         inkscape:connector-curvature="0" />
      <path
         id="path3425"
         d="m 7300,5400 0,-500 500,0 500,0 0,500 0,500 -500,0 -500,0 0,-500 z m 280,290 0,-70 70,0 70,0 0,-70 0,-70 140,0 140,0 0,70 0,70 70,0 70,0 0,-70 0,-70 -70,0 -70,0 0,-70 0,-70 70,0 70,0 0,-140 0,-140 -210,0 -210,0 0,70 0,70 -70,0 -70,0 0,-70 0,-70 -70,0 -70,0 0,70 0,70 70,0 70,0 0,210 0,210 -70,0 -70,0 0,70 0,70 70,0 70,0 0,-70 z"
         inkscape:connector-curvature="0" />
      <path
         id="path3427"
         d="m 7720,5270 0,-70 140,0 140,0 0,70 0,70 -140,0 -140,0 0,-70 z"
         inkscape:connector-curvature="0" />
      <path
         id="path3429"
         d="m 8500,5400 0,-500 500,0 500,0 0,500 0,500 -500,0 -500,0 0,-500 z m 280,150 0,-210 70,0 70,0 0,70 0,70 210,0 210,0 0,-70 0,-70 -70,0 -70,0 0,-70 0,-70 -210,0 -210,0 0,-70 0,-70 -70,0 -70,0 0,70 0,70 70,0 70,0 0,70 0,70 -70,0 -70,0 0,210 0,210 70,0 70,0 0,-210 z"
         inkscape:connector-curvature="0" />
      <path
         id="path3431"
         d="m 100,4200 0,-500 500,0 500,0 0,500 0,500 -500,0 -500,0 0,-500 z m 280,220 0,-140 70,0 70,0 0,140 0,140 210,0 210,0 0,-140 0,-140 -70,0 -70,0 0,-70 0,-70 70,0 70,0 0,-70 0,-70 -70,0 -70,0 0,-70 0,-70 -210,0 -210,0 0,70 0,70 -70,0 -70,0 0,70 0,70 70,0 70,0 0,70 0,70 -70,0 -70,0 0,140 0,140 70,0 70,0 0,-140 z"
         inkscape:connector-curvature="0" />
      <path
         id="path3433"
         d="m 380,4070 0,-70 70,0 70,0 0,70 0,70 -70,0 -70,0 0,-70 z"
         inkscape:connector-curvature="0" />
      <path
         id="path3435"
         d="m 1300,4200 0,-500 500,0 500,0 0,500 0,500 -500,0 -500,0 0,-500 z m 420,290 0,-70 140,0 140,0 0,70 0,70 70,0 70,0 0,-70 0,-70 -70,0 -70,0 0,-70 0,-70 70,0 70,0 0,-70 0,-70 -210,0 -210,0 0,70 0,70 -70,0 -70,0 0,-140 0,-140 70,0 70,0 0,-70 0,-70 -70,0 -70,0 0,70 0,70 -70,0 -70,0 0,140 0,140 70,0 70,0 0,140 0,140 70,0 70,0 0,-70 z m 420,-560 0,-70 -70,0 -70,0 0,70 0,70 70,0 70,0 0,-70 z"
         inkscape:connector-curvature="0" />
      <path
         id="path3437"
         d="m 2500,4200 0,-500 500,0 500,0 0,500 0,500 -500,0 -500,0 0,-500 z m 700,220 0,-140 70,0 70,0 0,-70 0,-70 -210,0 -210,0 0,70 0,70 -70,0 -70,0 0,-210 0,-210 -70,0 -70,0 0,210 0,210 70,0 70,0 0,140 0,140 210,0 210,0 0,-140 z"
         inkscape:connector-curvature="0" />
      <path
         id="path3439"
         d="m 3700,4200 0,-500 500,0 500,0 0,500 0,500 -500,0 -500,0 0,-500 z m 700,290 0,-70 70,0 70,0 0,-140 0,-140 -210,0 -210,0 0,140 0,140 -70,0 -70,0 0,-210 0,-210 70,0 70,0 0,-70 0,-70 -70,0 -70,0 0,70 0,70 -70,0 -70,0 0,210 0,210 70,0 70,0 0,70 0,70 210,0 210,0 0,-70 z m 140,-560 0,-70 -70,0 -70,0 0,70 0,70 70,0 70,0 0,-70 z"
         inkscape:connector-curvature="0" />
      <path
         id="path3441"
         d="m 4900,4200 0,-500 500,0 500,0 0,500 0,500 -500,0 -500,0 0,-500 z m 700,80 0,-280 70,0 70,0 0,-70 0,-70 -210,0 -210,0 0,70 0,70 -70,0 -70,0 0,-70 0,-70 -70,0 -70,0 0,70 0,70 70,0 70,0 0,280 0,280 210,0 210,0 0,-280 z"
         inkscape:connector-curvature="0" />
      <path
         id="path3443"
         d="m 6100,4200 0,-500 500,0 500,0 0,500 0,500 -500,0 -500,0 0,-500 z m 280,80 0,-280 70,0 70,0 0,280 0,280 210,0 210,0 0,-350 0,-350 -70,0 -70,0 0,70 0,70 -140,0 -140,0 0,-70 0,-70 -70,0 -70,0 0,70 0,70 -70,0 -70,0 0,280 0,280 70,0 70,0 0,-280 z"
         inkscape:connector-curvature="0" />
      <path
         id="path3445"
         d="m 7300,4200 0,-500 500,0 500,0 0,500 0,500 -500,0 -500,0 0,-500 z m 280,290 0,-70 210,0 210,0 0,-70 0,-70 70,0 70,0 0,-140 0,-140 -70,0 -70,0 0,-70 0,-70 -210,0 -210,0 0,70 0,70 -70,0 -70,0 0,140 0,140 70,0 70,0 0,70 0,70 -70,0 -70,0 0,70 0,70 70,0 70,0 0,-70 z"
         inkscape:connector-curvature="0" />
      <path
         id="path3447"
         d="m 7580,4140 0,-140 70,0 70,0 0,140 0,140 -70,0 -70,0 0,-140 z"
         inkscape:connector-curvature="0" />
      <path
         id="path3449"
         d="m 8500,4200 0,-500 500,0 500,0 0,500 0,500 -500,0 -500,0 0,-500 z m 700,290 0,-70 -210,0 -210,0 0,-140 0,-140 70,0 70,0 0,70 0,70 210,0 210,0 0,-70 0,-70 -70,0 -70,0 0,-70 0,-70 70,0 70,0 0,-70 0,-70 -70,0 -70,0 0,70 0,70 -140,0 -140,0 0,-70 0,-70 -70,0 -70,0 0,140 0,140 -70,0 -70,0 0,140 0,140 70,0 70,0 0,70 0,70 210,0 210,0 0,-70 z"
         inkscape:connector-curvature="0" />
      <path
         id="path3451"
         d="m 100,3000 0,-500 500,0 500,0 0,500 0,500 -500,0 -500,0 0,-500 z m 280,290 0,-70 210,0 210,0 0,-70 0,-70 -210,0 -210,0 0,-210 0,-210 -70,0 -70,0 0,210 0,210 70,0 70,0 0,70 0,70 -70,0 -70,0 0,70 0,70 70,0 70,0 0,-70 z"
         inkscape:connector-curvature="0" />
      <path
         id="path3453"
         d="m 1300,3000 0,-500 500,0 500,0 0,500 0,500 -500,0 -500,0 0,-500 z m 280,80 0,-280 70,0 70,0 0,210 0,210 210,0 210,0 0,-280 0,-280 -70,0 -70,0 0,70 0,70 -140,0 -140,0 0,-70 0,-70 -70,0 -70,0 0,70 0,70 -70,0 -70,0 0,280 0,280 70,0 70,0 0,-280 z"
         inkscape:connector-curvature="0" />
      <path
         id="path3455"
         d="m 2500,3000 0,-500 500,0 500,0 0,500 0,500 -500,0 -500,0 0,-500 z m 700,290 0,-70 -210,0 -210,0 0,-140 0,-140 70,0 70,0 0,70 0,70 210,0 210,0 0,-70 0,-70 -70,0 -70,0 0,-70 0,-70 70,0 70,0 0,-70 0,-70 -210,0 -210,0 0,70 0,70 -70,0 -70,0 0,-70 0,-70 -70,0 -70,0 0,70 0,70 70,0 70,0 0,70 0,70 -70,0 -70,0 0,140 0,140 70,0 70,0 0,70 0,70 210,0 210,0 0,-70 z"
         inkscape:connector-curvature="0" />
      <path
         id="path3457"
         d="m 3700,3000 0,-500 500,0 500,0 0,500 0,500 -500,0 -500,0 0,-500 z m 280,220 0,-140 70,0 70,0 0,70 0,70 210,0 210,0 0,-70 0,-70 -70,0 -70,0 0,-70 0,-70 70,0 70,0 0,-70 0,-70 -210,0 -210,0 0,70 0,70 -70,0 -70,0 0,-140 0,-140 -70,0 -70,0 0,140 0,140 70,0 70,0 0,70 0,70 -70,0 -70,0 0,140 0,140 70,0 70,0 0,-140 z"
         inkscape:connector-curvature="0" />
      <path
         id="path3459"
         d="m 4900,3000 0,-500 500,0 500,0 0,500 0,500 -500,0 -500,0 0,-500 z m 280,290 0,-70 70,0 70,0 0,70 0,70 210,0 210,0 0,-210 0,-210 -70,0 -70,0 0,-140 0,-140 -210,0 -210,0 0,280 0,280 -70,0 -70,0 0,70 0,70 70,0 70,0 0,-70 z"
         inkscape:connector-curvature="0" />
      <path
         id="path3461"
         d="m 5320,3080 0,-140 140,0 140,0 0,140 0,140 -140,0 -140,0 0,-140 z"
         inkscape:connector-curvature="0" />
      <path
         id="path3463"
         d="m 6100,3000 0,-500 500,0 500,0 0,500 0,500 -500,0 -500,0 0,-500 z m 280,290 0,-70 70,0 70,0 0,-140 0,-140 140,0 140,0 0,140 0,140 70,0 70,0 0,-280 0,-280 -210,0 -210,0 0,140 0,140 -70,0 -70,0 0,-140 0,-140 -70,0 -70,0 0,140 0,140 70,0 70,0 0,140 0,140 -70,0 -70,0 0,70 0,70 70,0 70,0 0,-70 z"
         inkscape:connector-curvature="0" />
      <path
         id="path3465"
         d="m 7300,3000 0,-500 500,0 500,0 0,500 0,500 -500,0 -500,0 0,-500 z m 280,150 0,-210 210,0 210,0 0,-140 0,-140 -210,0 -210,0 0,140 0,140 -70,0 -70,0 0,210 0,210 70,0 70,0 0,-210 z"
         inkscape:connector-curvature="0" />
      <path
         id="path3467"
         d="m 8500,3000 0,-500 500,0 500,0 0,500 0,500 -500,0 -500,0 0,-500 z m 280,150 0,-210 70,0 70,0 0,-70 0,-70 -70,0 -70,0 0,-70 0,-70 -70,0 -70,0 0,70 0,70 70,0 70,0 0,70 0,70 -70,0 -70,0 0,210 0,210 70,0 70,0 0,-210 z m 560,140 0,-70 -210,0 -210,0 0,70 0,70 210,0 210,0 0,-70 z m 0,-420 0,-70 -70,0 -70,0 0,70 0,70 70,0 70,0 0,-70 z"
         inkscape:connector-curvature="0" />
      <path
         id="path3469"
         d="m 100,1800 0,-500 500,0 500,0 0,500 0,500 -500,0 -500,0 0,-500 z m 280,220 0,-140 70,0 70,0 0,70 0,70 210,0 210,0 0,-140 0,-140 -70,0 -70,0 0,70 0,70 -140,0 -140,0 0,-70 0,-70 -70,0 -70,0 0,-70 0,-70 70,0 70,0 0,-70 0,-70 -70,0 -70,0 0,70 0,70 -70,0 -70,0 0,70 0,70 70,0 70,0 0,70 0,70 -70,0 -70,0 0,140 0,140 70,0 70,0 0,-140 z m 560,-490 0,-70 -70,0 -70,0 0,70 0,70 70,0 70,0 0,-70 z"
         inkscape:connector-curvature="0" />
      <path
         id="path3471"
         d="m 1300,1800 0,-500 500,0 500,0 0,500 0,500 -500,0 -500,0 0,-500 z m 280,150 0,-210 210,0 210,0 0,-140 0,-140 -210,0 -210,0 0,140 0,140 -70,0 -70,0 0,210 0,210 70,0 70,0 0,-210 z m 560,0 0,-70 -210,0 -210,0 0,70 0,70 210,0 210,0 0,-70 z"
         inkscape:connector-curvature="0" />
      <path
         id="path3473"
         d="m 2500,1800 0,-500 500,0 500,0 0,500 0,500 -500,0 -500,0 0,-500 z m 420,290 0,-70 140,0 140,0 0,70 0,70 70,0 70,0 0,-70 0,-70 -70,0 -70,0 0,-70 0,-70 70,0 70,0 0,-70 0,-70 -70,0 -70,0 0,70 0,70 -140,0 -140,0 0,-70 0,-70 -70,0 -70,0 0,-140 0,-140 -70,0 -70,0 0,140 0,140 70,0 70,0 0,210 0,210 70,0 70,0 0,-70 z m 420,-560 0,-70 -210,0 -210,0 0,70 0,70 210,0 210,0 0,-70 z"
         inkscape:connector-curvature="0" />
      <path
         id="path3475"
         d="m 3700,1800 0,-500 500,0 500,0 0,500 0,500 -500,0 -500,0 0,-500 z m 280,150 0,-210 70,0 70,0 0,140 0,140 210,0 210,0 0,-140 0,-140 -70,0 -70,0 0,-70 0,-70 70,0 70,0 0,-70 0,-70 -70,0 -70,0 0,70 0,70 -140,0 -140,0 0,-70 0,-70 -70,0 -70,0 0,140 0,140 -70,0 -70,0 0,210 0,210 70,0 70,0 0,-210 z"
         inkscape:connector-curvature="0" />
      <path
         id="path3477"
         d="m 4900,1800 0,-500 500,0 500,0 0,500 0,500 -500,0 -500,0 0,-500 z m 280,290 0,-70 70,0 70,0 0,70 0,70 210,0 210,0 0,-350 0,-350 -70,0 -70,0 0,280 0,280 -140,0 -140,0 0,-280 0,-280 -70,0 -70,0 0,280 0,280 -70,0 -70,0 0,70 0,70 70,0 70,0 0,-70 z"
         inkscape:connector-curvature="0" />
      <path
         id="path3479"
         d="m 6100,1800 0,-500 500,0 500,0 0,500 0,500 -500,0 -500,0 0,-500 z m 700,220 0,-140 -210,0 -210,0 0,-210 0,-210 -70,0 -70,0 0,210 0,210 70,0 70,0 0,140 0,140 210,0 210,0 0,-140 z m 140,-420 0,-140 -210,0 -210,0 0,140 0,140 210,0 210,0 0,-140 z"
         inkscape:connector-curvature="0" />
      <path
         id="path3481"
         d="m 7300,1800 0,-500 500,0 500,0 0,500 0,500 -500,0 -500,0 0,-500 z m 420,290 0,-70 -70,0 -70,0 0,-70 0,-70 70,0 70,0 0,-70 0,-70 -70,0 -70,0 0,-140 0,-140 -70,0 -70,0 0,140 0,140 70,0 70,0 0,70 0,70 -70,0 -70,0 0,70 0,70 70,0 70,0 0,70 0,70 70,0 70,0 0,-70 z m 420,0 0,-70 -70,0 -70,0 0,70 0,70 70,0 70,0 0,-70 z m 0,-280 0,-70 -70,0 -70,0 0,70 0,70 70,0 70,0 0,-70 z m 0,-280 0,-70 -210,0 -210,0 0,70 0,70 210,0 210,0 0,-70 z"
         inkscape:connector-curvature="0" />
      <path
         id="path3483"
         d="m 8500,1800 0,-500 500,0 500,0 0,500 0,500 -500,0 -500,0 0,-500 z m 420,220 0,-140 140,0 140,0 0,140 0,140 70,0 70,0 0,-140 0,-140 -70,0 -70,0 0,-210 0,-210 -210,0 -210,0 0,350 0,350 70,0 70,0 0,-140 z"
         inkscape:connector-curvature="0" />
      <path
         id="path3485"
         d="m 100,600 0,-500 500,0 500,0 0,500 0,500 -500,0 -500,0 0,-500 z m 280,220 0,-140 70,0 70,0 0,70 0,70 210,0 210,0 0,-70 0,-70 -70,0 -70,0 0,-140 0,-140 70,0 70,0 0,-70 0,-70 -210,0 -210,0 0,70 0,70 -70,0 -70,0 0,-70 0,-70 -70,0 -70,0 0,70 0,70 70,0 70,0 0,140 0,140 -70,0 -70,0 0,140 0,140 70,0 70,0 0,-140 z"
         inkscape:connector-curvature="0" />
      <path
         id="path3487"
         d="m 1300,600 0,-500 500,0 500,0 0,500 0,500 -500,0 -500,0 0,-500 z m 700,290 0,-70 70,0 70,0 0,-140 0,-140 -70,0 -70,0 0,70 0,70 -140,0 -140,0 0,-70 0,-70 -70,0 -70,0 0,-140 0,-140 -70,0 -70,0 0,140 0,140 70,0 70,0 0,70 0,70 -70,0 -70,0 0,70 0,70 70,0 70,0 0,70 0,70 210,0 210,0 0,-70 z"
         inkscape:connector-curvature="0" />
      <path
         id="path3489"
         d="m 1580,750 0,-70 70,0 70,0 0,70 0,70 -70,0 -70,0 0,-70 z"
         inkscape:connector-curvature="0" />
      <path
         id="path3491"
         d="m 2500,600 0,-500 500,0 500,0 0,500 0,500 -500,0 -500,0 0,-500 z m 280,150 0,-210 210,0 210,0 0,-70 0,-70 70,0 70,0 0,-70 0,-70 -210,0 -210,0 0,70 0,70 -70,0 -70,0 0,-70 0,-70 -70,0 -70,0 0,70 0,70 70,0 70,0 0,70 0,70 -70,0 -70,0 0,210 0,210 70,0 70,0 0,-210 z m 560,0 0,-70 -210,0 -210,0 0,70 0,70 210,0 210,0 0,-70 z"
         inkscape:connector-curvature="0" />
      <path
         id="path3493"
         d="m 3700,600 0,-500 500,0 500,0 0,500 0,500 -500,0 -500,0 0,-500 z m 280,290 0,-70 70,0 70,0 0,70 0,70 210,0 210,0 0,-70 0,-70 -70,0 -70,0 0,-70 0,-70 -210,0 -210,0 0,-210 0,-210 -70,0 -70,0 0,210 0,210 70,0 70,0 0,70 0,70 -70,0 -70,0 0,70 0,70 70,0 70,0 0,-70 z m 560,-420 0,-70 -210,0 -210,0 0,70 0,70 210,0 210,0 0,-70 z"
         inkscape:connector-curvature="0" />
      <path
         id="path3495"
         d="m 4900,600 0,-500 500,0 500,0 0,500 0,500 -500,0 -500,0 0,-500 z m 280,290 0,-70 210,0 210,0 0,-70 0,-70 70,0 70,0 0,-140 0,-140 -210,0 -210,0 0,70 0,70 -70,0 -70,0 0,-140 0,-140 -70,0 -70,0 0,140 0,140 70,0 70,0 0,140 0,140 -70,0 -70,0 0,70 0,70 70,0 70,0 0,-70 z"
         inkscape:connector-curvature="0" />
      <path
         id="path3497"
         d="m 5320,610 0,-70 140,0 140,0 0,70 0,70 -140,0 -140,0 0,-70 z"
         inkscape:connector-curvature="0" />
      <path
         id="path3499"
         d="m 6100,600 0,-500 500,0 500,0 0,500 0,500 -500,0 -500,0 0,-500 z m 280,290 0,-70 70,0 70,0 0,-70 0,-70 140,0 140,0 0,70 0,70 70,0 70,0 0,-280 0,-280 -70,0 -70,0 0,70 0,70 -140,0 -140,0 0,-70 0,-70 -70,0 -70,0 0,70 0,70 -70,0 -70,0 0,140 0,140 70,0 70,0 0,70 0,70 -70,0 -70,0 0,70 0,70 70,0 70,0 0,-70 z"
         inkscape:connector-curvature="0" />
      <path
         id="path3501"
         d="m 6380,540 0,-140 70,0 70,0 0,140 0,140 -70,0 -70,0 0,-140 z"
         inkscape:connector-curvature="0" />
      <path
         id="path3503"
         d="m 7300,600 0,-500 500,0 500,0 0,500 0,500 -500,0 -500,0 0,-500 z m 280,290 0,-70 70,0 70,0 0,-70 0,-70 -70,0 -70,0 0,-210 0,-210 -70,0 -70,0 0,210 0,210 70,0 70,0 0,70 0,70 -70,0 -70,0 0,70 0,70 70,0 70,0 0,-70 z m 560,-140 0,-70 -70,0 -70,0 0,70 0,70 70,0 70,0 0,-70 z m 0,-420 0,-70 -210,0 -210,0 0,70 0,70 210,0 210,0 0,-70 z"
         inkscape:connector-curvature="0" />
      <path
         id="path3505"
         d="m 8500,600 0,-500 500,0 500,0 0,500 0,500 -500,0 -500,0 0,-500 z m 700,290 0,-70 -210,0 -210,0 0,-70 0,-70 210,0 210,0 0,-140 0,-140 70,0 70,0 0,-70 0,-70 -70,0 -70,0 0,70 0,70 -140,0 -140,0 0,-70 0,-70 -70,0 -70,0 0,210 0,210 -70,0 -70,0 0,70 0,70 70,0 70,0 0,70 0,70 210,0 210,0 0,-70 z"
         inkscape:connector-curvature="0" />
    </g>
    <path
       style="fill:none;stroke:#000000;stroke-width:3.54330709;stroke-linecap:butt;stroke-linejoin:miter;stroke-opacity:1;stroke-miterlimit:4;stroke-dasharray:none"
       d="m 30.683594,-3111.9663 c 2918.566406,0 2918.566406,0 2918.566406,0"
       id="path4477"
       inkscape:connector-curvature="0" />
    <path
       style="fill:none;stroke:#000000;stroke-width:3.54330707;stroke-linecap:butt;stroke-linejoin:miter;stroke-miterlimit:4;stroke-opacity:1;stroke-dasharray:none"
       d="m 30.683594,986.3076 c 2918.566406,0 2918.566406,0 2918.566406,0"
       id="path4477-8"
       inkscape:connector-curvature="0" />
    <flowRoot
       xml:space="preserve"
       id="flowRoot4497"
       style="font-size:40px;font-style:normal;font-variant:normal;font-weight:500;font-stretch:normal;line-height:125%;letter-spacing:0px;word-spacing:0px;fill:#7f7f7f;fill-opacity:1;stroke:none;font-family:Inconsolata;-inkscape-font-specification:Inconsolata Medium"
       transform="translate(26.5,-3164.6299)"><flowRegion
         id="flowRegion4499"><rect
           id="rect4501"
           width="96.166519"
           height="107.48023"
           x="333.75439"
           y="394.6156"
           style="fill:#7f7f7f;fill-opacity:1" /></flowRegion><flowPara
         id="flowPara4503"
         style="font-size:48px;fill:#7f7f7f;fill-opacity:1">1</flowPara></flowRoot>  </g>
</svg>
