<?xml version="1.0" standalone="no"?>
<!DOCTYPE svg PUBLIC "-//W3C//DTD SVG 20010904//EN"
 "http://www.w3.org/TR/2001/REC-SVG-20010904/DTD/svg10.dtd">
<svg version="1.0" xmlns="http://www.w3.org/2000/svg"
 width="960.000000pt" height="1320.000000pt" viewBox="0 0 960.000000 1320.000000"
 preserveAspectRatio="xMidYMid meet">
<metadata>
Created by potrace 1.11, written by Peter Selinger 2001-2013
</metadata>
<g transform="translate(0.000000,1320.000000) scale(0.100000,-0.100000)"
fill="#000000" stroke="none">
<path d="M100 12600 l0 -500 500 0 500 0 0 500 0 500 -500 0 -500 0 0 -500z
m280 220 l0 -140 70 0 70 0 0 70 0 70 210 0 210 0 0 -70 0 -70 -70 0 -70 0 0
-70 0 -70 70 0 70 0 0 -140 0 -140 -70 0 -70 0 0 70 0 70 -140 0 -140 0 0 -70
0 -70 -70 0 -70 0 0 70 0 70 -70 0 -70 0 0 70 0 70 70 0 70 0 0 70 0 70 -70 0
-70 0 0 140 0 140 70 0 70 0 0 -140z"/>
<path d="M380 12470 l0 -70 70 0 70 0 0 70 0 70 -70 0 -70 0 0 -70z"/>
<path d="M1300 12600 l0 -500 500 0 500 0 0 500 0 500 -500 0 -500 0 0 -500z
m280 290 l0 -70 70 0 70 0 0 -70 0 -70 -70 0 -70 0 0 -70 0 -70 210 0 210 0 0
-70 0 -70 70 0 70 0 0 -70 0 -70 -70 0 -70 0 0 70 0 70 -140 0 -140 0 0 -70 0
-70 -70 0 -70 0 0 140 0 140 -70 0 -70 0 0 70 0 70 70 0 70 0 0 70 0 70 -70 0
-70 0 0 70 0 70 70 0 70 0 0 -70z m560 -140 l0 -70 -70 0 -70 0 0 70 0 70 70
0 70 0 0 -70z"/>
<path d="M2500 12600 l0 -500 500 0 500 0 0 500 0 500 -500 0 -500 0 0 -500z
m280 10 l0 -350 -70 0 -70 0 0 350 0 350 70 0 70 0 0 -350z m560 140 l0 -70
-210 0 -210 0 0 70 0 70 210 0 210 0 0 -70z m0 -350 l0 -140 -210 0 -210 0 0
140 0 140 210 0 210 0 0 -140z"/>
<path d="M3700 12600 l0 -500 500 0 500 0 0 500 0 500 -500 0 -500 0 0 -500z
m280 80 l0 -280 70 0 70 0 0 280 0 280 210 0 210 0 0 -280 0 -280 -70 0 -70 0
0 -70 0 -70 -210 0 -210 0 0 70 0 70 -70 0 -70 0 0 280 0 280 70 0 70 0 0
-280z"/>
<path d="M4900 12600 l0 -500 500 0 500 0 0 500 0 500 -500 0 -500 0 0 -500z
m700 290 l0 -70 -210 0 -210 0 0 -210 0 -210 70 0 70 0 0 140 0 140 210 0 210
0 0 -210 0 -210 -70 0 -70 0 0 70 0 70 -140 0 -140 0 0 -70 0 -70 -70 0 -70 0
0 70 0 70 -70 0 -70 0 0 210 0 210 70 0 70 0 0 70 0 70 210 0 210 0 0 -70z"/>
<path d="M6100 12600 l0 -500 500 0 500 0 0 500 0 500 -500 0 -500 0 0 -500z
m280 220 l0 -140 70 0 70 0 0 140 0 140 210 0 210 0 0 -280 0 -280 -70 0 -70
0 0 -70 0 -70 -210 0 -210 0 0 210 0 210 -70 0 -70 0 0 140 0 140 70 0 70 0 0
-140z"/>
<path d="M6520 12540 l0 -140 140 0 140 0 0 140 0 140 -140 0 -140 0 0 -140z"/>
<path d="M7300 12600 l0 -500 500 0 500 0 0 500 0 500 -500 0 -500 0 0 -500z
m420 220 l0 -140 -70 0 -70 0 0 -140 0 -140 70 0 70 0 0 70 0 70 210 0 210 0
0 -140 0 -140 -70 0 -70 0 0 70 0 70 -140 0 -140 0 0 -70 0 -70 -70 0 -70 0 0
70 0 70 -70 0 -70 0 0 140 0 140 70 0 70 0 0 140 0 140 70 0 70 0 0 -140z
m420 0 l0 -140 -70 0 -70 0 0 140 0 140 70 0 70 0 0 -140z"/>
<path d="M8500 12600 l0 -500 500 0 500 0 0 500 0 500 -500 0 -500 0 0 -500z
m700 220 l0 -140 70 0 70 0 0 -70 0 -70 -210 0 -210 0 0 70 0 70 -70 0 -70 0
0 -210 0 -210 -70 0 -70 0 0 210 0 210 70 0 70 0 0 140 0 140 210 0 210 0 0
-140z m140 -490 l0 -70 -210 0 -210 0 0 70 0 70 210 0 210 0 0 -70z"/>
<path d="M100 11400 l0 -500 500 0 500 0 0 500 0 500 -500 0 -500 0 0 -500z
m280 290 l0 -70 70 0 70 0 0 -70 0 -70 140 0 140 0 0 70 0 70 70 0 70 0 0
-210 0 -210 -70 0 -70 0 0 70 0 70 -140 0 -140 0 0 -70 0 -70 -70 0 -70 0 0
-70 0 -70 -70 0 -70 0 0 70 0 70 70 0 70 0 0 70 0 70 -70 0 -70 0 0 70 0 70
70 0 70 0 0 70 0 70 -70 0 -70 0 0 70 0 70 70 0 70 0 0 -70z"/>
<path d="M380 11410 l0 -70 70 0 70 0 0 70 0 70 -70 0 -70 0 0 -70z"/>
<path d="M1300 11400 l0 -500 500 0 500 0 0 500 0 500 -500 0 -500 0 0 -500z
m700 290 l0 -70 70 0 70 0 0 -70 0 -70 -70 0 -70 0 0 70 0 70 -140 0 -140 0 0
-70 0 -70 -70 0 -70 0 0 -70 0 -70 70 0 70 0 0 -140 0 -140 -70 0 -70 0 0 140
0 140 -70 0 -70 0 0 70 0 70 70 0 70 0 0 140 0 140 210 0 210 0 0 -70z m140
-490 l0 -140 -70 0 -70 0 0 140 0 140 70 0 70 0 0 -140z"/>
<path d="M2500 11400 l0 -500 500 0 500 0 0 500 0 500 -500 0 -500 0 0 -500z
m280 290 l0 -70 70 0 70 0 0 70 0 70 210 0 210 0 0 -70 0 -70 -70 0 -70 0 0
-210 0 -210 70 0 70 0 0 -70 0 -70 -210 0 -210 0 0 70 0 70 -70 0 -70 0 0 -70
0 -70 -70 0 -70 0 0 70 0 70 70 0 70 0 0 210 0 210 -70 0 -70 0 0 70 0 70 70
0 70 0 0 -70z"/>
<path d="M3700 11400 l0 -500 500 0 500 0 0 500 0 500 -500 0 -500 0 0 -500z
m280 10 l0 -350 -70 0 -70 0 0 350 0 350 70 0 70 0 0 -350z m560 -140 l0 -70
-210 0 -210 0 0 70 0 70 210 0 210 0 0 -70z"/>
<path d="M4900 11400 l0 -500 500 0 500 0 0 500 0 500 -500 0 -500 0 0 -500z
m280 220 l0 -140 70 0 70 0 0 140 0 140 210 0 210 0 0 -140 0 -140 -70 0 -70
0 0 -70 0 -70 -210 0 -210 0 0 -70 0 -70 210 0 210 0 0 -70 0 -70 -210 0 -210
0 0 70 0 70 -70 0 -70 0 0 70 0 70 70 0 70 0 0 70 0 70 -70 0 -70 0 0 140 0
140 70 0 70 0 0 -140z"/>
<path d="M6100 11400 l0 -500 500 0 500 0 0 500 0 500 -500 0 -500 0 0 -500z
m280 150 l0 -210 70 0 70 0 0 -140 0 -140 -70 0 -70 0 0 140 0 140 -70 0 -70
0 0 210 0 210 70 0 70 0 0 -210z m560 140 l0 -70 -210 0 -210 0 0 70 0 70 210
0 210 0 0 -70z m0 -490 l0 -140 -70 0 -70 0 0 140 0 140 70 0 70 0 0 -140z"/>
<path d="M7300 11400 l0 -500 500 0 500 0 0 500 0 500 -500 0 -500 0 0 -500z
m420 290 l0 -70 140 0 140 0 0 70 0 70 70 0 70 0 0 -140 0 -140 -70 0 -70 0 0
-70 0 -70 70 0 70 0 0 -140 0 -140 -210 0 -210 0 0 70 0 70 -70 0 -70 0 0 -70
0 -70 -70 0 -70 0 0 70 0 70 70 0 70 0 0 140 0 140 -70 0 -70 0 0 70 0 70 70
0 70 0 0 70 0 70 70 0 70 0 0 -70z"/>
<path d="M7580 11550 l0 -70 70 0 70 0 0 70 0 70 -70 0 -70 0 0 -70z"/>
<path d="M7720 11270 l0 -70 140 0 140 0 0 70 0 70 -140 0 -140 0 0 -70z"/>
<path d="M8500 11400 l0 -500 500 0 500 0 0 500 0 500 -500 0 -500 0 0 -500z
m280 290 l0 -70 70 0 70 0 0 -70 0 -70 140 0 140 0 0 70 0 70 70 0 70 0 0 -70
0 -70 -70 0 -70 0 0 -70 0 -70 70 0 70 0 0 -140 0 -140 -210 0 -210 0 0 140 0
140 -70 0 -70 0 0 -140 0 -140 -70 0 -70 0 0 140 0 140 70 0 70 0 0 140 0 140
-70 0 -70 0 0 70 0 70 70 0 70 0 0 -70z"/>
<path d="M100 10200 l0 -500 500 0 500 0 0 500 0 500 -500 0 -500 0 0 -500z
m280 290 l0 -70 210 0 210 0 0 -70 0 -70 -210 0 -210 0 0 -70 0 -70 70 0 70 0
0 -140 0 -140 -70 0 -70 0 0 140 0 140 -70 0 -70 0 0 70 0 70 70 0 70 0 0 70
0 70 -70 0 -70 0 0 70 0 70 70 0 70 0 0 -70z m560 -490 l0 -140 -70 0 -70 0 0
140 0 140 70 0 70 0 0 -140z"/>
<path d="M1300 10200 l0 -500 500 0 500 0 0 500 0 500 -500 0 -500 0 0 -500z
m280 290 l0 -70 70 0 70 0 0 70 0 70 210 0 210 0 0 -210 0 -210 -70 0 -70 0 0
-70 0 -70 70 0 70 0 0 -70 0 -70 -70 0 -70 0 0 70 0 70 -140 0 -140 0 0 -70 0
-70 -70 0 -70 0 0 280 0 280 -70 0 -70 0 0 70 0 70 70 0 70 0 0 -70z"/>
<path d="M1720 10280 l0 -140 140 0 140 0 0 140 0 140 -140 0 -140 0 0 -140z"/>
<path d="M2500 10200 l0 -500 500 0 500 0 0 500 0 500 -500 0 -500 0 0 -500z
m280 290 l0 -70 70 0 70 0 0 -70 0 -70 140 0 140 0 0 70 0 70 70 0 70 0 0 -70
0 -70 -70 0 -70 0 0 -140 0 -140 70 0 70 0 0 -70 0 -70 -70 0 -70 0 0 70 0 70
-140 0 -140 0 0 -70 0 -70 -70 0 -70 0 0 280 0 280 -70 0 -70 0 0 70 0 70 70
0 70 0 0 -70z"/>
<path d="M3700 10200 l0 -500 500 0 500 0 0 500 0 500 -500 0 -500 0 0 -500z
m280 10 l0 -350 -70 0 -70 0 0 350 0 350 70 0 70 0 0 -350z m560 140 l0 -70
-210 0 -210 0 0 70 0 70 210 0 210 0 0 -70z m0 -420 l0 -70 -210 0 -210 0 0
70 0 70 210 0 210 0 0 -70z"/>
<path d="M4900 10200 l0 -500 500 0 500 0 0 500 0 500 -500 0 -500 0 0 -500z
m420 290 l0 -70 140 0 140 0 0 70 0 70 70 0 70 0 0 -70 0 -70 -70 0 -70 0 0
-70 0 -70 70 0 70 0 0 -70 0 -70 -70 0 -70 0 0 -70 0 -70 70 0 70 0 0 -70 0
-70 -210 0 -210 0 0 70 0 70 -70 0 -70 0 0 -70 0 -70 -70 0 -70 0 0 70 0 70
70 0 70 0 0 280 0 280 70 0 70 0 0 -70z"/>
<path d="M5320 10210 l0 -70 140 0 140 0 0 70 0 70 -140 0 -140 0 0 -70z"/>
<path d="M6100 10200 l0 -500 500 0 500 0 0 500 0 500 -500 0 -500 0 0 -500z
m280 150 l0 -210 70 0 70 0 0 210 0 210 210 0 210 0 0 -210 0 -210 -70 0 -70
0 0 -70 0 -70 70 0 70 0 0 -70 0 -70 -210 0 -210 0 0 70 0 70 -70 0 -70 0 0
-70 0 -70 -70 0 -70 0 0 70 0 70 70 0 70 0 0 70 0 70 -70 0 -70 0 0 210 0 210
70 0 70 0 0 -210z"/>
<path d="M7300 10200 l0 -500 500 0 500 0 0 500 0 500 -500 0 -500 0 0 -500z
m420 290 l0 -70 140 0 140 0 0 70 0 70 70 0 70 0 0 -70 0 -70 -70 0 -70 0 0
-70 0 -70 -210 0 -210 0 0 -70 0 -70 70 0 70 0 0 -70 0 -70 140 0 140 0 0 70
0 70 70 0 70 0 0 -70 0 -70 -70 0 -70 0 0 -70 0 -70 -210 0 -210 0 0 140 0
140 -70 0 -70 0 0 70 0 70 70 0 70 0 0 140 0 140 70 0 70 0 0 -70z"/>
<path d="M8500 10200 l0 -500 500 0 500 0 0 500 0 500 -500 0 -500 0 0 -500z
m280 220 l0 -140 70 0 70 0 0 70 0 70 210 0 210 0 0 -210 0 -210 -70 0 -70 0
0 140 0 140 -140 0 -140 0 0 -140 0 -140 -70 0 -70 0 0 -70 0 -70 -70 0 -70 0
0 70 0 70 70 0 70 0 0 140 0 140 -70 0 -70 0 0 140 0 140 70 0 70 0 0 -140z"/>
<path d="M100 9000 l0 -500 500 0 500 0 0 500 0 500 -500 0 -500 0 0 -500z
m280 290 l0 -70 70 0 70 0 0 -70 0 -70 -70 0 -70 0 0 -210 0 -210 -70 0 -70 0
0 210 0 210 70 0 70 0 0 70 0 70 -70 0 -70 0 0 70 0 70 70 0 70 0 0 -70z m560
-140 l0 -70 -70 0 -70 0 0 70 0 70 70 0 70 0 0 -70z"/>
<path d="M1300 9000 l0 -500 500 0 500 0 0 500 0 500 -500 0 -500 0 0 -500z
m700 220 l0 -140 70 0 70 0 0 -70 0 -70 -70 0 -70 0 0 -70 0 -70 70 0 70 0 0
-70 0 -70 -210 0 -210 0 0 70 0 70 -70 0 -70 0 0 -70 0 -70 -70 0 -70 0 0 70
0 70 70 0 70 0 0 280 0 280 210 0 210 0 0 -140z"/>
<path d="M1720 9010 l0 -70 140 0 140 0 0 70 0 70 -140 0 -140 0 0 -70z"/>
<path d="M2500 9000 l0 -500 500 0 500 0 0 500 0 500 -500 0 -500 0 0 -500z
m280 290 l0 -70 70 0 70 0 0 -70 0 -70 140 0 140 0 0 70 0 70 70 0 70 0 0
-280 0 -280 -70 0 -70 0 0 140 0 140 -140 0 -140 0 0 -140 0 -140 -70 0 -70 0
0 140 0 140 -70 0 -70 0 0 70 0 70 70 0 70 0 0 70 0 70 -70 0 -70 0 0 70 0 70
70 0 70 0 0 -70z"/>
<path d="M2780 9010 l0 -70 70 0 70 0 0 70 0 70 -70 0 -70 0 0 -70z"/>
<path d="M3700 9000 l0 -500 500 0 500 0 0 500 0 500 -500 0 -500 0 0 -500z
m280 290 l0 -70 70 0 70 0 0 -70 0 -70 -70 0 -70 0 0 -140 0 -140 70 0 70 0 0
70 0 70 210 0 210 0 0 -140 0 -140 -70 0 -70 0 0 70 0 70 -140 0 -140 0 0 -70
0 -70 -70 0 -70 0 0 70 0 70 -70 0 -70 0 0 140 0 140 70 0 70 0 0 70 0 70 -70
0 -70 0 0 70 0 70 70 0 70 0 0 -70z m560 -140 l0 -70 -70 0 -70 0 0 70 0 70
70 0 70 0 0 -70z"/>
<path d="M4900 9000 l0 -500 500 0 500 0 0 500 0 500 -500 0 -500 0 0 -500z
m280 290 l0 -70 70 0 70 0 0 70 0 70 210 0 210 0 0 -70 0 -70 -70 0 -70 0 0
-70 0 -70 -210 0 -210 0 0 -140 0 -140 70 0 70 0 0 70 0 70 210 0 210 0 0
-140 0 -140 -70 0 -70 0 0 70 0 70 -140 0 -140 0 0 -70 0 -70 -70 0 -70 0 0
70 0 70 -70 0 -70 0 0 140 0 140 70 0 70 0 0 70 0 70 -70 0 -70 0 0 70 0 70
70 0 70 0 0 -70z"/>
<path d="M6100 9000 l0 -500 500 0 500 0 0 500 0 500 -500 0 -500 0 0 -500z
m420 220 l0 -140 140 0 140 0 0 140 0 140 70 0 70 0 0 -350 0 -350 -210 0
-210 0 0 70 0 70 -70 0 -70 0 0 -70 0 -70 -70 0 -70 0 0 70 0 70 70 0 70 0 0
70 0 70 -70 0 -70 0 0 70 0 70 70 0 70 0 0 140 0 140 70 0 70 0 0 -140z"/>
<path d="M6380 9010 l0 -70 70 0 70 0 0 -70 0 -70 140 0 140 0 0 70 0 70 -140
0 -140 0 0 70 0 70 -70 0 -70 0 0 -70z"/>
<path d="M7300 9000 l0 -500 500 0 500 0 0 500 0 500 -500 0 -500 0 0 -500z
m700 290 l0 -70 70 0 70 0 0 -140 0 -140 -70 0 -70 0 0 -70 0 -70 70 0 70 0 0
-70 0 -70 -70 0 -70 0 0 70 0 70 -140 0 -140 0 0 -70 0 -70 -70 0 -70 0 0 140
0 140 -70 0 -70 0 0 140 0 140 70 0 70 0 0 70 0 70 210 0 210 0 0 -70z"/>
<path d="M7580 9080 l0 -140 70 0 70 0 0 140 0 140 -70 0 -70 0 0 -140z"/>
<path d="M8500 9000 l0 -500 500 0 500 0 0 500 0 500 -500 0 -500 0 0 -500z
m280 290 l0 -70 70 0 70 0 0 70 0 70 210 0 210 0 0 -70 0 -70 -70 0 -70 0 0
-70 0 -70 70 0 70 0 0 -70 0 -70 -210 0 -210 0 0 70 0 70 -70 0 -70 0 0 -210
0 -210 -70 0 -70 0 0 210 0 210 70 0 70 0 0 70 0 70 -70 0 -70 0 0 70 0 70 70
0 70 0 0 -70z"/>
<path d="M100 7800 l0 -500 500 0 500 0 0 500 0 500 -500 0 -500 0 0 -500z
m420 290 l0 -70 -70 0 -70 0 0 -280 0 -280 -70 0 -70 0 0 280 0 280 70 0 70 0
0 70 0 70 70 0 70 0 0 -70z m420 0 l0 -70 -70 0 -70 0 0 70 0 70 70 0 70 0 0
-70z m0 -490 l0 -140 -210 0 -210 0 0 140 0 140 210 0 210 0 0 -140z"/>
<path d="M1300 7800 l0 -500 500 0 500 0 0 500 0 500 -500 0 -500 0 0 -500z
m280 290 l0 -70 70 0 70 0 0 -70 0 -70 140 0 140 0 0 70 0 70 70 0 70 0 0
-280 0 -280 -210 0 -210 0 0 70 0 70 -70 0 -70 0 0 -70 0 -70 -70 0 -70 0 0
70 0 70 70 0 70 0 0 70 0 70 -70 0 -70 0 0 70 0 70 70 0 70 0 0 70 0 70 -70 0
-70 0 0 70 0 70 70 0 70 0 0 -70z"/>
<path d="M1580 7810 l0 -70 70 0 70 0 0 -70 0 -70 140 0 140 0 0 70 0 70 -140
0 -140 0 0 70 0 70 -70 0 -70 0 0 -70z"/>
<path d="M2500 7800 l0 -500 500 0 500 0 0 500 0 500 -500 0 -500 0 0 -500z
m420 290 l0 -70 140 0 140 0 0 70 0 70 70 0 70 0 0 -70 0 -70 -70 0 -70 0 0
-70 0 -70 70 0 70 0 0 -70 0 -70 -70 0 -70 0 0 -140 0 -140 -210 0 -210 0 0
350 0 350 70 0 70 0 0 -70z"/>
<path d="M2920 7810 l0 -70 140 0 140 0 0 70 0 70 -140 0 -140 0 0 -70z"/>
<path d="M3700 7800 l0 -500 500 0 500 0 0 500 0 500 -500 0 -500 0 0 -500z
m280 220 l0 -140 70 0 70 0 0 140 0 140 210 0 210 0 0 -140 0 -140 -70 0 -70
0 0 -70 0 -70 -210 0 -210 0 0 -140 0 -140 -70 0 -70 0 0 140 0 140 70 0 70 0
0 70 0 70 -70 0 -70 0 0 140 0 140 70 0 70 0 0 -140z"/>
<path d="M4900 7800 l0 -500 500 0 500 0 0 500 0 500 -500 0 -500 0 0 -500z
m420 290 l0 -70 140 0 140 0 0 70 0 70 70 0 70 0 0 -70 0 -70 -70 0 -70 0 0
-70 0 -70 70 0 70 0 0 -140 0 -140 -70 0 -70 0 0 -70 0 -70 -210 0 -210 0 0
350 0 350 70 0 70 0 0 -70z"/>
<path d="M5320 7740 l0 -140 140 0 140 0 0 140 0 140 -140 0 -140 0 0 -140z"/>
<path d="M6100 7800 l0 -500 500 0 500 0 0 500 0 500 -500 0 -500 0 0 -500z
m700 220 l0 -140 -210 0 -210 0 0 -140 0 -140 70 0 70 0 0 70 0 70 210 0 210
0 0 -140 0 -140 -70 0 -70 0 0 70 0 70 -140 0 -140 0 0 -70 0 -70 -70 0 -70 0
0 70 0 70 -70 0 -70 0 0 140 0 140 70 0 70 0 0 140 0 140 210 0 210 0 0 -140z"/>
<path d="M7300 7800 l0 -500 500 0 500 0 0 500 0 500 -500 0 -500 0 0 -500z
m280 290 l0 -70 210 0 210 0 0 -70 0 -70 70 0 70 0 0 -70 0 -70 -70 0 -70 0 0
70 0 70 -140 0 -140 0 0 -70 0 -70 -70 0 -70 0 0 -70 0 -70 210 0 210 0 0 -70
0 -70 -210 0 -210 0 0 70 0 70 -70 0 -70 0 0 70 0 70 70 0 70 0 0 140 0 140
-70 0 -70 0 0 70 0 70 70 0 70 0 0 -70z"/>
<path d="M8500 7800 l0 -500 500 0 500 0 0 500 0 500 -500 0 -500 0 0 -500z
m420 290 l0 -70 -70 0 -70 0 0 -70 0 -70 70 0 70 0 0 -70 0 -70 140 0 140 0 0
70 0 70 70 0 70 0 0 -210 0 -210 -210 0 -210 0 0 140 0 140 -70 0 -70 0 0
-140 0 -140 -70 0 -70 0 0 140 0 140 70 0 70 0 0 70 0 70 -70 0 -70 0 0 70 0
70 70 0 70 0 0 70 0 70 70 0 70 0 0 -70z m420 0 l0 -70 -70 0 -70 0 0 70 0 70
70 0 70 0 0 -70z"/>
<path d="M100 6600 l0 -500 500 0 500 0 0 500 0 500 -500 0 -500 0 0 -500z
m280 290 l0 -70 70 0 70 0 0 70 0 70 210 0 210 0 0 -70 0 -70 -70 0 -70 0 0
-70 0 -70 70 0 70 0 0 -70 0 -70 -210 0 -210 0 0 70 0 70 -70 0 -70 0 0 -140
0 -140 70 0 70 0 0 -70 0 -70 -70 0 -70 0 0 70 0 70 -70 0 -70 0 0 140 0 140
70 0 70 0 0 70 0 70 -70 0 -70 0 0 70 0 70 70 0 70 0 0 -70z m560 -560 l0 -70
-70 0 -70 0 0 70 0 70 70 0 70 0 0 -70z"/>
<path d="M1300 6600 l0 -500 500 0 500 0 0 500 0 500 -500 0 -500 0 0 -500z
m420 290 l0 -70 140 0 140 0 0 70 0 70 70 0 70 0 0 -140 0 -140 -210 0 -210 0
0 70 0 70 -70 0 -70 0 0 -210 0 -210 210 0 210 0 0 -70 0 -70 -210 0 -210 0 0
70 0 70 -70 0 -70 0 0 210 0 210 70 0 70 0 0 70 0 70 70 0 70 0 0 -70z"/>
<path d="M2500 6600 l0 -500 500 0 500 0 0 500 0 500 -500 0 -500 0 0 -500z
m280 290 l0 -70 70 0 70 0 0 70 0 70 210 0 210 0 0 -280 0 -280 -70 0 -70 0 0
-70 0 -70 -210 0 -210 0 0 140 0 140 -70 0 -70 0 0 70 0 70 70 0 70 0 0 70 0
70 -70 0 -70 0 0 70 0 70 70 0 70 0 0 -70z"/>
<path d="M2920 6750 l0 -70 -70 0 -70 0 0 -70 0 -70 70 0 70 0 0 -70 0 -70
140 0 140 0 0 70 0 70 -140 0 -140 0 0 70 0 70 140 0 140 0 0 70 0 70 -140 0
-140 0 0 -70z"/>
<path d="M3700 6600 l0 -500 500 0 500 0 0 500 0 500 -500 0 -500 0 0 -500z
m420 290 l0 -70 140 0 140 0 0 70 0 70 70 0 70 0 0 -70 0 -70 -70 0 -70 0 0
-140 0 -140 70 0 70 0 0 -140 0 -140 -210 0 -210 0 0 140 0 140 -70 0 -70 0 0
-140 0 -140 -70 0 -70 0 0 140 0 140 70 0 70 0 0 210 0 210 70 0 70 0 0 -70z"/>
<path d="M4900 6600 l0 -500 500 0 500 0 0 500 0 500 -500 0 -500 0 0 -500z
m280 220 l0 -140 70 0 70 0 0 140 0 140 210 0 210 0 0 -210 0 -210 -70 0 -70
0 0 70 0 70 -140 0 -140 0 0 -70 0 -70 -70 0 -70 0 0 -140 0 -140 -70 0 -70 0
0 140 0 140 70 0 70 0 0 70 0 70 -70 0 -70 0 0 140 0 140 70 0 70 0 0 -140z"/>
<path d="M6100 6600 l0 -500 500 0 500 0 0 500 0 500 -500 0 -500 0 0 -500z
m280 220 l0 -140 70 0 70 0 0 70 0 70 210 0 210 0 0 -70 0 -70 -70 0 -70 0 0
-70 0 -70 70 0 70 0 0 -70 0 -70 -70 0 -70 0 0 -70 0 -70 -210 0 -210 0 0 210
0 210 -70 0 -70 0 0 140 0 140 70 0 70 0 0 -140z"/>
<path d="M6520 6470 l0 -70 140 0 140 0 0 70 0 70 -140 0 -140 0 0 -70z"/>
<path d="M7300 6600 l0 -500 500 0 500 0 0 500 0 500 -500 0 -500 0 0 -500z
m280 290 l0 -70 70 0 70 0 0 -70 0 -70 140 0 140 0 0 70 0 70 70 0 70 0 0
-210 0 -210 -210 0 -210 0 0 140 0 140 -70 0 -70 0 0 -210 0 -210 -70 0 -70 0
0 210 0 210 70 0 70 0 0 70 0 70 -70 0 -70 0 0 70 0 70 70 0 70 0 0 -70z"/>
<path d="M8500 6600 l0 -500 500 0 500 0 0 500 0 500 -500 0 -500 0 0 -500z
m280 220 l0 -140 70 0 70 0 0 140 0 140 210 0 210 0 0 -140 0 -140 -70 0 -70
0 0 -70 0 -70 70 0 70 0 0 -70 0 -70 -70 0 -70 0 0 -70 0 -70 -210 0 -210 0 0
210 0 210 -70 0 -70 0 0 140 0 140 70 0 70 0 0 -140z"/>
<path d="M8920 6470 l0 -70 140 0 140 0 0 70 0 70 -140 0 -140 0 0 -70z"/>
<path d="M100 5400 l0 -500 500 0 500 0 0 500 0 500 -500 0 -500 0 0 -500z
m280 290 l0 -70 210 0 210 0 0 -70 0 -70 -210 0 -210 0 0 -210 0 -210 -70 0
-70 0 0 210 0 210 70 0 70 0 0 70 0 70 -70 0 -70 0 0 70 0 70 70 0 70 0 0 -70z
m560 -560 l0 -70 -210 0 -210 0 0 70 0 70 210 0 210 0 0 -70z"/>
<path d="M1300 5400 l0 -500 500 0 500 0 0 500 0 500 -500 0 -500 0 0 -500z
m700 290 l0 -70 70 0 70 0 0 -140 0 -140 -210 0 -210 0 0 140 0 140 -70 0 -70
0 0 -210 0 -210 210 0 210 0 0 -70 0 -70 -210 0 -210 0 0 70 0 70 -70 0 -70 0
0 210 0 210 70 0 70 0 0 70 0 70 210 0 210 0 0 -70z"/>
<path d="M2500 5400 l0 -500 500 0 500 0 0 500 0 500 -500 0 -500 0 0 -500z
m280 220 l0 -140 70 0 70 0 0 140 0 140 210 0 210 0 0 -140 0 -140 -70 0 -70
0 0 -140 0 -140 70 0 70 0 0 -70 0 -70 -210 0 -210 0 0 70 0 70 -70 0 -70 0 0
-70 0 -70 -70 0 -70 0 0 70 0 70 70 0 70 0 0 140 0 140 -70 0 -70 0 0 140 0
140 70 0 70 0 0 -140z"/>
<path d="M3700 5400 l0 -500 500 0 500 0 0 500 0 500 -500 0 -500 0 0 -500z
m280 150 l0 -210 210 0 210 0 0 -70 0 -70 70 0 70 0 0 -70 0 -70 -210 0 -210
0 0 70 0 70 -70 0 -70 0 0 -70 0 -70 -70 0 -70 0 0 70 0 70 70 0 70 0 0 70 0
70 -70 0 -70 0 0 210 0 210 70 0 70 0 0 -210z"/>
<path d="M4900 5400 l0 -500 500 0 500 0 0 500 0 500 -500 0 -500 0 0 -500z
m280 80 l0 -280 70 0 70 0 0 140 0 140 210 0 210 0 0 -210 0 -210 -70 0 -70 0
0 70 0 70 -140 0 -140 0 0 -70 0 -70 -70 0 -70 0 0 70 0 70 -70 0 -70 0 0 280
0 280 70 0 70 0 0 -280z"/>
<path d="M6100 5400 l0 -500 500 0 500 0 0 500 0 500 -500 0 -500 0 0 -500z
m700 290 l0 -70 70 0 70 0 0 -70 0 -70 -70 0 -70 0 0 -140 0 -140 -210 0 -210
0 0 -70 0 -70 -70 0 -70 0 0 70 0 70 70 0 70 0 0 280 0 280 210 0 210 0 0 -70z"/>
<path d="M6520 5550 l0 -70 140 0 140 0 0 70 0 70 -140 0 -140 0 0 -70z"/>
<path d="M7300 5400 l0 -500 500 0 500 0 0 500 0 500 -500 0 -500 0 0 -500z
m420 290 l0 -70 140 0 140 0 0 70 0 70 70 0 70 0 0 -70 0 -70 -70 0 -70 0 0
-210 0 -210 70 0 70 0 0 -70 0 -70 -210 0 -210 0 0 70 0 70 -70 0 -70 0 0 -70
0 -70 -70 0 -70 0 0 70 0 70 70 0 70 0 0 280 0 280 70 0 70 0 0 -70z"/>
<path d="M8500 5400 l0 -500 500 0 500 0 0 500 0 500 -500 0 -500 0 0 -500z
m280 290 l0 -70 70 0 70 0 0 70 0 70 210 0 210 0 0 -140 0 -140 -70 0 -70 0 0
70 0 70 -140 0 -140 0 0 -70 0 -70 -70 0 -70 0 0 -70 0 -70 210 0 210 0 0
-140 0 -140 -210 0 -210 0 0 140 0 140 -70 0 -70 0 0 70 0 70 70 0 70 0 0 70
0 70 -70 0 -70 0 0 70 0 70 70 0 70 0 0 -70z"/>
<path d="M100 4200 l0 -500 500 0 500 0 0 500 0 500 -500 0 -500 0 0 -500z
m700 290 l0 -70 70 0 70 0 0 -280 0 -280 -210 0 -210 0 0 70 0 70 -70 0 -70 0
0 -70 0 -70 -70 0 -70 0 0 70 0 70 70 0 70 0 0 70 0 70 -70 0 -70 0 0 70 0 70
70 0 70 0 0 140 0 140 210 0 210 0 0 -70z"/>
<path d="M520 4350 l0 -70 -70 0 -70 0 0 -70 0 -70 70 0 70 0 0 -70 0 -70 140
0 140 0 0 70 0 70 -140 0 -140 0 0 70 0 70 140 0 140 0 0 70 0 70 -140 0 -140
0 0 -70z"/>
<path d="M1300 4200 l0 -500 500 0 500 0 0 500 0 500 -500 0 -500 0 0 -500z
m420 290 l0 -70 140 0 140 0 0 70 0 70 70 0 70 0 0 -210 0 -210 -70 0 -70 0 0
-70 0 -70 70 0 70 0 0 -70 0 -70 -210 0 -210 0 0 70 0 70 -70 0 -70 0 0 -70 0
-70 -70 0 -70 0 0 70 0 70 70 0 70 0 0 70 0 70 -70 0 -70 0 0 140 0 140 70 0
70 0 0 70 0 70 70 0 70 0 0 -70z"/>
<path d="M1580 4280 l0 -140 70 0 70 0 0 140 0 140 -70 0 -70 0 0 -140z"/>
<path d="M2500 4200 l0 -500 500 0 500 0 0 500 0 500 -500 0 -500 0 0 -500z
m420 290 l0 -70 140 0 140 0 0 70 0 70 70 0 70 0 0 -350 0 -350 -70 0 -70 0 0
210 0 210 -140 0 -140 0 0 -210 0 -210 -70 0 -70 0 0 210 0 210 -70 0 -70 0 0
70 0 70 70 0 70 0 0 70 0 70 70 0 70 0 0 -70z"/>
<path d="M2780 4350 l0 -70 70 0 70 0 0 70 0 70 -70 0 -70 0 0 -70z"/>
<path d="M3700 4200 l0 -500 500 0 500 0 0 500 0 500 -500 0 -500 0 0 -500z
m280 220 l0 -140 70 0 70 0 0 140 0 140 210 0 210 0 0 -210 0 -210 -70 0 -70
0 0 -70 0 -70 70 0 70 0 0 -70 0 -70 -70 0 -70 0 0 70 0 70 -140 0 -140 0 0
-70 0 -70 -70 0 -70 0 0 210 0 210 -70 0 -70 0 0 140 0 140 70 0 70 0 0 -140z"/>
<path d="M4120 4210 l0 -70 140 0 140 0 0 70 0 70 -140 0 -140 0 0 -70z"/>
<path d="M4900 4200 l0 -500 500 0 500 0 0 500 0 500 -500 0 -500 0 0 -500z
m280 220 l0 -140 70 0 70 0 0 -70 0 -70 -70 0 -70 0 0 -70 0 -70 70 0 70 0 0
-70 0 -70 -70 0 -70 0 0 70 0 70 -70 0 -70 0 0 70 0 70 70 0 70 0 0 70 0 70
-70 0 -70 0 0 140 0 140 70 0 70 0 0 -140z m560 -210 l0 -70 -70 0 -70 0 0 70
0 70 70 0 70 0 0 -70z m0 -280 l0 -70 -70 0 -70 0 0 70 0 70 70 0 70 0 0 -70z"/>
<path d="M6100 4200 l0 -500 500 0 500 0 0 500 0 500 -500 0 -500 0 0 -500z
m280 150 l0 -210 70 0 70 0 0 140 0 140 210 0 210 0 0 -210 0 -210 -70 0 -70
0 0 -70 0 -70 -210 0 -210 0 0 140 0 140 -70 0 -70 0 0 210 0 210 70 0 70 0 0
-210z"/>
<path d="M6520 4070 l0 -70 140 0 140 0 0 70 0 70 -140 0 -140 0 0 -70z"/>
<path d="M7300 4200 l0 -500 500 0 500 0 0 500 0 500 -500 0 -500 0 0 -500z
m280 150 l0 -210 70 0 70 0 0 210 0 210 210 0 210 0 0 -280 0 -280 -70 0 -70
0 0 -70 0 -70 -210 0 -210 0 0 140 0 140 -70 0 -70 0 0 210 0 210 70 0 70 0 0
-210z"/>
<path d="M7720 4070 l0 -70 140 0 140 0 0 70 0 70 -140 0 -140 0 0 -70z"/>
<path d="M8500 4200 l0 -500 500 0 500 0 0 500 0 500 -500 0 -500 0 0 -500z
m280 220 l0 -140 210 0 210 0 0 -70 0 -70 70 0 70 0 0 -70 0 -70 -70 0 -70 0
0 70 0 70 -140 0 -140 0 0 -70 0 -70 -70 0 -70 0 0 -70 0 -70 -70 0 -70 0 0
70 0 70 70 0 70 0 0 140 0 140 -70 0 -70 0 0 140 0 140 70 0 70 0 0 -140z
m560 70 l0 -70 -210 0 -210 0 0 70 0 70 210 0 210 0 0 -70z"/>
<path d="M100 3000 l0 -500 500 0 500 0 0 500 0 500 -500 0 -500 0 0 -500z
m700 290 l0 -70 -210 0 -210 0 0 -70 0 -70 70 0 70 0 0 -70 0 -70 -70 0 -70 0
0 -140 0 -140 -70 0 -70 0 0 140 0 140 70 0 70 0 0 70 0 70 -70 0 -70 0 0 70
0 70 70 0 70 0 0 70 0 70 210 0 210 0 0 -70z m140 -280 l0 -70 -70 0 -70 0 0
70 0 70 70 0 70 0 0 -70z m0 -280 l0 -70 -210 0 -210 0 0 70 0 70 210 0 210 0
0 -70z"/>
<path d="M1300 3000 l0 -500 500 0 500 0 0 500 0 500 -500 0 -500 0 0 -500z
m420 220 l0 -140 140 0 140 0 0 140 0 140 70 0 70 0 0 -350 0 -350 -210 0
-210 0 0 210 0 210 -70 0 -70 0 0 -210 0 -210 -70 0 -70 0 0 210 0 210 70 0
70 0 0 140 0 140 70 0 70 0 0 -140z"/>
<path d="M2500 3000 l0 -500 500 0 500 0 0 500 0 500 -500 0 -500 0 0 -500z
m280 290 l0 -70 70 0 70 0 0 70 0 70 210 0 210 0 0 -280 0 -280 -70 0 -70 0 0
210 0 210 -140 0 -140 0 0 -210 0 -210 -70 0 -70 0 0 -70 0 -70 -70 0 -70 0 0
70 0 70 70 0 70 0 0 210 0 210 -70 0 -70 0 0 70 0 70 70 0 70 0 0 -70z"/>
<path d="M3700 3000 l0 -500 500 0 500 0 0 500 0 500 -500 0 -500 0 0 -500z
m280 290 l0 -70 70 0 70 0 0 -70 0 -70 140 0 140 0 0 70 0 70 70 0 70 0 0 -70
0 -70 -70 0 -70 0 0 -210 0 -210 -210 0 -210 0 0 280 0 280 -70 0 -70 0 0 70
0 70 70 0 70 0 0 -70z"/>
<path d="M4900 3000 l0 -500 500 0 500 0 0 500 0 500 -500 0 -500 0 0 -500z
m280 220 l0 -140 70 0 70 0 0 70 0 70 210 0 210 0 0 -70 0 -70 -70 0 -70 0 0
-70 0 -70 70 0 70 0 0 -140 0 -140 -70 0 -70 0 0 140 0 140 -140 0 -140 0 0
-140 0 -140 -70 0 -70 0 0 210 0 210 -70 0 -70 0 0 140 0 140 70 0 70 0 0
-140z"/>
<path d="M6100 3000 l0 -500 500 0 500 0 0 500 0 500 -500 0 -500 0 0 -500z
m420 290 l0 -70 140 0 140 0 0 70 0 70 70 0 70 0 0 -210 0 -210 -70 0 -70 0 0
-70 0 -70 70 0 70 0 0 -70 0 -70 -70 0 -70 0 0 70 0 70 -140 0 -140 0 0 -70 0
-70 -70 0 -70 0 0 210 0 210 -70 0 -70 0 0 70 0 70 70 0 70 0 0 70 0 70 70 0
70 0 0 -70z"/>
<path d="M6380 3150 l0 -70 70 0 70 0 0 -70 0 -70 140 0 140 0 0 70 0 70 -140
0 -140 0 0 70 0 70 -70 0 -70 0 0 -70z"/>
<path d="M7300 3000 l0 -500 500 0 500 0 0 500 0 500 -500 0 -500 0 0 -500z
m280 290 l0 -70 70 0 70 0 0 -140 0 -140 140 0 140 0 0 140 0 140 70 0 70 0 0
-280 0 -280 -70 0 -70 0 0 70 0 70 -140 0 -140 0 0 -70 0 -70 -70 0 -70 0 0
70 0 70 -70 0 -70 0 0 70 0 70 70 0 70 0 0 140 0 140 -70 0 -70 0 0 70 0 70
70 0 70 0 0 -70z"/>
<path d="M7580 2870 l0 -70 70 0 70 0 0 70 0 70 -70 0 -70 0 0 -70z"/>
<path d="M8500 3000 l0 -500 500 0 500 0 0 500 0 500 -500 0 -500 0 0 -500z
m280 290 l0 -70 210 0 210 0 0 -70 0 -70 70 0 70 0 0 -70 0 -70 -70 0 -70 0 0
-140 0 -140 -210 0 -210 0 0 280 0 280 -70 0 -70 0 0 70 0 70 70 0 70 0 0 -70z"/>
<path d="M8920 3010 l0 -70 140 0 140 0 0 70 0 70 -140 0 -140 0 0 -70z"/>
<path d="M100 1800 l0 -500 500 0 500 0 0 500 0 500 -500 0 -500 0 0 -500z
m280 290 l0 -70 70 0 70 0 0 70 0 70 210 0 210 0 0 -70 0 -70 -70 0 -70 0 0
-140 0 -140 -210 0 -210 0 0 -140 0 -140 -70 0 -70 0 0 140 0 140 70 0 70 0 0
140 0 140 -70 0 -70 0 0 70 0 70 70 0 70 0 0 -70z"/>
<path d="M1300 1800 l0 -500 500 0 500 0 0 500 0 500 -500 0 -500 0 0 -500z
m280 290 l0 -70 70 0 70 0 0 70 0 70 210 0 210 0 0 -350 0 -350 -210 0 -210 0
0 210 0 210 -70 0 -70 0 0 -210 0 -210 -70 0 -70 0 0 210 0 210 70 0 70 0 0
70 0 70 -70 0 -70 0 0 70 0 70 70 0 70 0 0 -70z"/>
<path d="M1720 1950 l0 -70 140 0 140 0 0 70 0 70 -140 0 -140 0 0 -70z"/>
<path d="M2500 1800 l0 -500 500 0 500 0 0 500 0 500 -500 0 -500 0 0 -500z
m700 290 l0 -70 70 0 70 0 0 -70 0 -70 -210 0 -210 0 0 70 0 70 -70 0 -70 0 0
-140 0 -140 210 0 210 0 0 -140 0 -140 -210 0 -210 0 0 140 0 140 -70 0 -70 0
0 140 0 140 70 0 70 0 0 70 0 70 210 0 210 0 0 -70z"/>
<path d="M3700 1800 l0 -500 500 0 500 0 0 500 0 500 -500 0 -500 0 0 -500z
m700 290 l0 -70 -210 0 -210 0 0 -70 0 -70 210 0 210 0 0 -70 0 -70 -210 0
-210 0 0 -70 0 -70 210 0 210 0 0 -70 0 -70 -210 0 -210 0 0 70 0 70 -70 0
-70 0 0 70 0 70 70 0 70 0 0 70 0 70 -70 0 -70 0 0 70 0 70 70 0 70 0 0 70 0
70 210 0 210 0 0 -70z"/>
<path d="M4900 1800 l0 -500 500 0 500 0 0 500 0 500 -500 0 -500 0 0 -500z
m280 290 l0 -70 70 0 70 0 0 -140 0 -140 140 0 140 0 0 140 0 140 70 0 70 0 0
-140 0 -140 -70 0 -70 0 0 -70 0 -70 70 0 70 0 0 -70 0 -70 -210 0 -210 0 0
70 0 70 -70 0 -70 0 0 -70 0 -70 -70 0 -70 0 0 70 0 70 70 0 70 0 0 210 0 210
-70 0 -70 0 0 70 0 70 70 0 70 0 0 -70z"/>
<path d="M6100 1800 l0 -500 500 0 500 0 0 500 0 500 -500 0 -500 0 0 -500z
m280 220 l0 -140 70 0 70 0 0 -70 0 -70 -70 0 -70 0 0 -140 0 -140 -70 0 -70
0 0 140 0 140 70 0 70 0 0 70 0 70 -70 0 -70 0 0 140 0 140 70 0 70 0 0 -140z
m560 -210 l0 -70 -70 0 -70 0 0 70 0 70 70 0 70 0 0 -70z"/>
<path d="M7300 1800 l0 -500 500 0 500 0 0 500 0 500 -500 0 -500 0 0 -500z
m700 220 l0 -140 70 0 70 0 0 -210 0 -210 -70 0 -70 0 0 70 0 70 -140 0 -140
0 0 -70 0 -70 -70 0 -70 0 0 70 0 70 -70 0 -70 0 0 70 0 70 70 0 70 0 0 210 0
210 210 0 210 0 0 -140z"/>
<path d="M7720 1810 l0 -70 -70 0 -70 0 0 -70 0 -70 70 0 70 0 0 70 0 70 140
0 140 0 0 70 0 70 -140 0 -140 0 0 -70z"/>
<path d="M8500 1800 l0 -500 500 0 500 0 0 500 0 500 -500 0 -500 0 0 -500z
m420 290 l0 -70 140 0 140 0 0 70 0 70 70 0 70 0 0 -140 0 -140 -70 0 -70 0 0
-70 0 -70 70 0 70 0 0 -70 0 -70 -70 0 -70 0 0 -70 0 -70 -210 0 -210 0 0 210
0 210 -70 0 -70 0 0 70 0 70 70 0 70 0 0 70 0 70 70 0 70 0 0 -70z"/>
<path d="M8780 1950 l0 -70 70 0 70 0 0 70 0 70 -70 0 -70 0 0 -70z"/>
<path d="M8920 1670 l0 -70 140 0 140 0 0 70 0 70 -140 0 -140 0 0 -70z"/>
<path d="M100 600 l0 -500 500 0 500 0 0 500 0 500 -500 0 -500 0 0 -500z
m280 80 l0 -280 70 0 70 0 0 70 0 70 210 0 210 0 0 -140 0 -140 -70 0 -70 0 0
70 0 70 -140 0 -140 0 0 -70 0 -70 -70 0 -70 0 0 70 0 70 -70 0 -70 0 0 280 0
280 70 0 70 0 0 -280z m560 140 l0 -140 -210 0 -210 0 0 140 0 140 210 0 210
0 0 -140z"/>
<path d="M1300 600 l0 -500 500 0 500 0 0 500 0 500 -500 0 -500 0 0 -500z
m280 150 l0 -210 210 0 210 0 0 -140 0 -140 -210 0 -210 0 0 140 0 140 -70 0
-70 0 0 210 0 210 70 0 70 0 0 -210z m560 140 l0 -70 -210 0 -210 0 0 70 0 70
210 0 210 0 0 -70z"/>
<path d="M2500 600 l0 -500 500 0 500 0 0 500 0 500 -500 0 -500 0 0 -500z
m280 290 l0 -70 70 0 70 0 0 -70 0 -70 -70 0 -70 0 0 -70 0 -70 70 0 70 0 0
-70 0 -70 140 0 140 0 0 70 0 70 70 0 70 0 0 -70 0 -70 -70 0 -70 0 0 -70 0
-70 -210 0 -210 0 0 140 0 140 -70 0 -70 0 0 70 0 70 70 0 70 0 0 70 0 70 -70
0 -70 0 0 70 0 70 70 0 70 0 0 -70z m560 -140 l0 -70 -70 0 -70 0 0 70 0 70
70 0 70 0 0 -70z"/>
<path d="M3700 600 l0 -500 500 0 500 0 0 500 0 500 -500 0 -500 0 0 -500z
m700 220 l0 -140 70 0 70 0 0 -140 0 -140 -70 0 -70 0 0 -70 0 -70 -210 0
-210 0 0 140 0 140 -70 0 -70 0 0 70 0 70 70 0 70 0 0 140 0 140 210 0 210 0
0 -140z"/>
<path d="M3980 610 l0 -70 70 0 70 0 0 -70 0 -70 140 0 140 0 0 70 0 70 -140
0 -140 0 0 70 0 70 -70 0 -70 0 0 -70z"/>
<path d="M4900 600 l0 -500 500 0 500 0 0 500 0 500 -500 0 -500 0 0 -500z
m280 290 l0 -70 210 0 210 0 0 -70 0 -70 70 0 70 0 0 -210 0 -210 -70 0 -70 0
0 140 0 140 -140 0 -140 0 0 -140 0 -140 -70 0 -70 0 0 140 0 140 -70 0 -70 0
0 70 0 70 70 0 70 0 0 70 0 70 -70 0 -70 0 0 70 0 70 70 0 70 0 0 -70z"/>
<path d="M5180 610 l0 -70 70 0 70 0 0 70 0 70 -70 0 -70 0 0 -70z"/>
<path d="M6100 600 l0 -500 500 0 500 0 0 500 0 500 -500 0 -500 0 0 -500z
m420 290 l0 -70 140 0 140 0 0 70 0 70 70 0 70 0 0 -70 0 -70 -70 0 -70 0 0
-140 0 -140 70 0 70 0 0 -140 0 -140 -70 0 -70 0 0 140 0 140 -140 0 -140 0 0
-140 0 -140 -70 0 -70 0 0 350 0 350 70 0 70 0 0 -70z"/>
<path d="M7300 600 l0 -500 500 0 500 0 0 500 0 500 -500 0 -500 0 0 -500z
m700 290 l0 -70 -210 0 -210 0 0 -70 0 -70 210 0 210 0 0 -70 0 -70 70 0 70 0
0 -70 0 -70 -70 0 -70 0 0 70 0 70 -140 0 -140 0 0 -70 0 -70 -70 0 -70 0 0
-70 0 -70 -70 0 -70 0 0 70 0 70 70 0 70 0 0 140 0 140 -70 0 -70 0 0 70 0 70
70 0 70 0 0 70 0 70 210 0 210 0 0 -70z"/>
<path d="M8500 600 l0 -500 500 0 500 0 0 500 0 500 -500 0 -500 0 0 -500z
m420 290 l0 -70 140 0 140 0 0 70 0 70 70 0 70 0 0 -70 0 -70 -70 0 -70 0 0
-70 0 -70 70 0 70 0 0 -210 0 -210 -70 0 -70 0 0 70 0 70 -140 0 -140 0 0 -70
0 -70 -70 0 -70 0 0 70 0 70 -70 0 -70 0 0 70 0 70 70 0 70 0 0 210 0 210 70
0 70 0 0 -70z"/>
<path d="M8920 610 l0 -70 -70 0 -70 0 0 -70 0 -70 70 0 70 0 0 70 0 70 140 0
140 0 0 70 0 70 -140 0 -140 0 0 -70z"/>
</g>
</svg>
